<?xml version="1.0" encoding="utf-8"?>
<!-- Generator: Adobe Illustrator 26.0.3, SVG Export Plug-In . SVG Version: 6.00 Build 0)  -->
<svg version="1.1" id="Layer_1" xmlns="http://www.w3.org/2000/svg" xmlns:xlink="http://www.w3.org/1999/xlink" x="0px" y="0px"
	 viewBox="0 0 300 100" style="enable-background:new 0 0 300 100;" xml:space="preserve">
<style type="text/css">
	.st0{fill:#FFFFFF;}
	.st1{fill:#005893;}
	.st2{fill:#F6F6E9;}
	.st3{fill:#14344D;}
	.st4{enable-background:new    ;}
</style>
<g>
	<g>
		<circle class="st0" cx="45.9" cy="50" r="44.9"/>
		<circle class="st1" cx="45.9" cy="50" r="41.2"/>
		<circle class="st2" cx="45.9" cy="50" r="37.8"/>
		<path class="st1" d="M45.9,86.9C25.6,86.9,9,70.3,9,50s16.6-36.9,36.9-36.9S82.8,29.6,82.8,50S66.3,86.9,45.9,86.9z M45.9,14.2
			c-19.7,0-35.8,16.1-35.8,35.8s16.1,35.8,35.8,35.8S81.7,69.7,81.7,50S65.6,14.2,45.9,14.2L45.9,14.2z"/>
		<path class="st3" d="M75.8,61.9c0.6-0.3,1.3-0.3,2-0.1c-0.5,1.5-2.1,2.1-3.3,1.5C74.7,62.7,75.2,62.2,75.8,61.9z"/>
		<path class="st3" d="M72.9,60.1c0.6,0.2,1.2,0.7,1.5,1.3c0.3,0.6,0.3,1.3,0,1.9C73.1,62.7,72.5,61.3,72.9,60.1z"/>
		<path class="st3" d="M75.3,60.8c0.5-1.3,1.8-2.1,3.2-1.8C78.2,60.5,76.7,61.3,75.3,60.8z"/>
		<path class="st3" d="M73.6,57.8c1.3,0.3,2.2,1.7,1.7,3.1C74,60.4,73.3,59,73.6,57.8z"/>
		<path class="st3" d="M76.1,58.3c0.3-1.4,1.7-2.3,3-2.1C78.9,57.8,77.5,58.7,76.1,58.3z"/>
		<path class="st3" d="M74.1,55.4c1.4,0.2,2.3,1.5,2,2.9C74.7,58,73.9,56.6,74.1,55.4z"/>
		<path class="st3" d="M76.6,55.7c0.3-1.4,1.5-2.4,2.9-2.3C79.4,55,78,56,76.6,55.7z"/>
		<path class="st3" d="M74.4,53c1.4,0.1,2.5,1.4,2.2,2.8C75.3,55.5,74.3,54.3,74.4,53z"/>
		<path class="st3" d="M77,53.1c0.1-1.4,1.3-2.5,2.7-2.5C79.6,52.2,78.4,53.3,77,53.1z"/>
		<path class="st3" d="M74.6,50.5c1.4,0,2.5,1.2,2.4,2.6C75.6,53,74.6,51.8,74.6,50.5z"/>
		<path class="st3" d="M77.1,50.5c0-1.4,1.1-2.6,2.5-2.7C79.7,49.3,78.5,50.5,77.1,50.5z"/>
		<path class="st3" d="M74.5,48.1c1.4-0.1,2.6,1,2.6,2.4C75.7,50.5,74.6,49.4,74.5,48.1z"/>
		<path class="st3" d="M77.1,47.9C77,46.5,78,45.2,79.3,45C79.5,46.5,78.5,47.8,77.1,47.9z"/>
		<path class="st3" d="M74.3,45.7c1.4-0.2,2.7,0.8,2.8,2.2C75.7,47.9,74.5,47,74.3,45.7z"/>
		<path class="st3" d="M76.8,45.2c-0.2-1.4,0.7-2.7,2-3.1C79.2,43.7,78.2,45.1,76.8,45.2z"/>
		<path class="st3" d="M73.8,43.3c1.4-0.3,2.8,0.5,3,2C75.4,45.4,74.1,44.5,73.8,43.3z"/>
		<path class="st3" d="M76.3,42.7c-0.3-1.4,0.5-2.8,1.8-3.2C78.6,40.9,77.7,42.4,76.3,42.7z"/>
		<path class="st3" d="M73.2,40.9c1.3-0.4,2.8,0.3,3.1,1.7C75,42.9,73.6,42.2,73.2,40.9z"/>
		<path class="st3" d="M75.7,40.1c-0.4-1.3,0.2-2.8,1.5-3.3C77.8,38.2,77,39.7,75.7,40.1z"/>
		<path class="st3" d="M72.4,38.6c1.3-0.5,2.8,0.1,3.2,1.5C74.3,40.5,72.9,39.8,72.4,38.6z"/>
		<path class="st3" d="M76,34.2c0.3,0.6,0.4,1.4,0.1,2.1c-0.2,0.6-0.7,1.2-1.4,1.4C74.3,36.3,74.8,34.8,76,34.2z"/>
		<path class="st3" d="M74.8,37.6c-0.6,0.2-1.3,0.3-1.9,0c-0.6-0.2-1.1-0.6-1.4-1.2C72.7,35.8,74.3,36.3,74.8,37.6z"/>
		<path class="st3" d="M72.3,33c0.7,0.2,1.3,0.6,1.7,1.2c0.3,0.6,0.4,1.3,0.2,2C72.9,35.7,72,34.4,72.3,33z"/>
		<path class="st3" d="M73.8,63.5c0.5,0,1,0.4,1,0.9c0,0.5-0.4,1-0.9,1c-0.5,0-1-0.4-1-0.9C72.8,64,73.2,63.6,73.8,63.5z"/>
		<path class="st1" d="M59.7,41l-4.4-1.8v4.7c0.3,0.2,0.4,0.6,0.2,0.9c0,0,0,0,0,0l0.3,0.8l0.3,0.7c0.1,0.2,0,0.4-0.2,0.5
			c-0.2,0.1-0.4,0-0.5-0.2l0-0.1v0.7c0,0.2-0.2,0.4-0.4,0.4c-0.2,0-0.4-0.2-0.4-0.4v-0.7l0,0.1c-0.1,0.1-0.2,0.2-0.4,0.2
			c-0.2,0-0.4-0.2-0.4-0.4c0-0.1,0-0.1,0-0.2l0.6-1.4c-0.1-0.1-0.1-0.2-0.1-0.4c0-0.2,0.1-0.4,0.3-0.5V39c0-0.1,0-0.1,0-0.1
			l-3.3-1.4L46,35.3c-0.2-0.1-0.3-0.1-0.5,0l-16.6,6.9c-0.3,0.1-0.5,0.5-0.4,0.9c0.1,0.2,0.2,0.3,0.4,0.4l3,1.2l2.7,1.1v2.9
			c0,0.4,0.3,0.8,0.7,0.9c6.9,1.9,14.2,1.9,21.1,0c0.4-0.1,0.7-0.5,0.7-0.9v-2.9l2.7-1.1l3-1.2c0.3-0.1,0.5-0.5,0.4-0.9
			c-0.1-0.2-0.2-0.3-0.4-0.4L59.7,41z"/>
		<path class="st1" d="M67.8,51h-7.9c-0.1,0-0.2-0.1-0.2-0.3c0-0.1,0.1-0.2,0.2-0.2h7.9c0.1,0,0.2,0.1,0.2,0.3
			C68.1,50.9,68,51,67.8,51z"/>
		<path class="st1" d="M65.8,50.2h-5.9c-0.1,0-0.2-0.1-0.2-0.2c0-0.1,0.1-0.2,0.2-0.2h5.9c0.1,0,0.2,0.1,0.2,0.2
			C66.1,50.1,66,50.2,65.8,50.2z"/>
		<path class="st1" d="M64.2,49.4H60c-0.2,0-0.3-0.1-0.3-0.2c0-0.1,0.1-0.2,0.3-0.2h4.2c0.2,0,0.3,0.1,0.3,0.2S64.3,49.4,64.2,49.4z
			"/>
		<path class="st1" d="M63.2,48.6h-3.2c-0.1,0-0.2-0.1-0.2-0.2c0-0.1,0.1-0.2,0.2-0.2c0,0,0,0,0,0h3.2c0.1,0,0.2,0.1,0.2,0.2
			C63.4,48.5,63.3,48.6,63.2,48.6C63.2,48.6,63.2,48.6,63.2,48.6L63.2,48.6z"/>
		<path class="st1" d="M62.3,47.8h-2.5c-0.1,0-0.2-0.1-0.2-0.2c0-0.1,0.1-0.2,0.2-0.2h2.5c0.1,0,0.2,0.1,0.2,0.2
			C62.5,47.7,62.4,47.8,62.3,47.8z"/>
		<path class="st1" d="M23.5,51h7.9c0.1,0,0.2-0.1,0.2-0.3c0-0.1-0.1-0.2-0.2-0.2h-7.9c-0.1,0-0.2,0.1-0.2,0.3
			C23.3,50.9,23.4,51,23.5,51z"/>
		<path class="st1" d="M25.5,50.2h5.9c0.1,0,0.2-0.1,0.2-0.2c0-0.1-0.1-0.2-0.2-0.2h-5.9c-0.1,0-0.2,0.1-0.2,0.2
			C25.3,50.1,25.4,50.2,25.5,50.2z"/>
		<path class="st1" d="M27.2,49.4h4.2c0.2,0,0.3-0.1,0.3-0.2c0-0.1-0.1-0.2-0.3-0.2h-4.2c-0.2,0-0.3,0.1-0.3,0.2
			S27.1,49.4,27.2,49.4z"/>
		<path class="st1" d="M28.2,48.6h3.2c0.1,0,0.2-0.1,0.2-0.2c0-0.1-0.1-0.2-0.2-0.2c0,0,0,0,0,0h-3.2c-0.1,0-0.2,0.1-0.2,0.2
			C28,48.5,28.1,48.6,28.2,48.6C28.2,48.6,28.2,48.6,28.2,48.6z"/>
		<path class="st1" d="M29,47.8h2.5c0.1,0,0.2-0.1,0.2-0.2c0-0.1-0.1-0.2-0.2-0.2H29c-0.1,0-0.2,0.1-0.2,0.2
			C28.9,47.7,28.9,47.8,29,47.8z"/>
		<path class="st3" d="M40.8,66.2c0,0.5-0.1,1.1-0.5,1.5c-0.2,0.3-0.5,0.5-0.9,0.6c-0.2,0.1-0.5,0.1-0.7,0.1c-0.5,0-0.9-0.1-1.3-0.4
			c-0.3-0.2-0.5-0.5-0.7-0.8c-0.2-0.4-0.3-0.8-0.3-1.2l1.2-0.1c0.1,0.5,0.2,0.9,0.4,1.1c0.1,0.2,0.3,0.2,0.5,0.2
			c0.3,0,0.5-0.2,0.7-0.4c0.1-0.2,0.1-0.4,0.1-0.6c0-0.4-0.2-0.7-0.5-1.1l-1.1-1.1c-0.4-0.4-0.7-0.8-0.9-1.1
			c-0.2-0.4-0.3-0.8-0.3-1.2c0-0.8,0.3-1.4,0.8-1.8c0.3-0.2,0.8-0.4,1.2-0.4c0.4,0,0.8,0.1,1.2,0.3c0.3,0.2,0.5,0.4,0.6,0.7
			c0.2,0.3,0.3,0.6,0.3,1l-1.2,0.2c0-0.3-0.1-0.6-0.3-0.8c-0.1-0.1-0.3-0.2-0.5-0.2c-0.2,0-0.4,0.1-0.5,0.3C38,61.3,38,61.5,38,61.7
			c0,0.4,0.2,0.8,0.5,1.2c0.2,0.2,0.4,0.4,0.6,0.5c0.3,0.2,0.5,0.4,0.6,0.5c0.3,0.3,0.5,0.6,0.7,0.9c0.1,0.1,0.1,0.3,0.2,0.4
			C40.7,65.6,40.7,65.9,40.8,66.2z"/>
		<path class="st3" d="M41.6,67h1.3v1.3h-1.3V67z"/>
		<path class="st3" d="M45.8,59.8c0.6,0,1.1,0.2,1.5,0.6c0.3,0.4,0.5,0.9,0.5,1.4V63c0,0.5-0.2,1.1-0.6,1.4
			c-0.4,0.4-0.9,0.6-1.4,0.6h-0.7v3.2h-1.3v-8.5H45.8z M46.6,61.8c0-0.2-0.1-0.4-0.2-0.5c-0.1-0.1-0.3-0.2-0.5-0.2h-0.8v2.7h0.8
			c0.2,0,0.4-0.1,0.5-0.2c0.1-0.1,0.2-0.3,0.2-0.5L46.6,61.8z"/>
		<path class="st3" d="M48.7,67H50v1.3h-1.3V67z"/>
		<path class="st3" d="M53,68.4c-1.1,0-2-0.9-2-2c0,0,0,0,0,0v-6.6h1.3v6.6c0,0.2,0.1,0.4,0.2,0.5c0.1,0.1,0.3,0.2,0.5,0.2
			c0.4,0,0.7-0.3,0.7-0.7c0,0,0,0,0,0v-6.6H55v6.6c0,0.5-0.2,1.1-0.6,1.4C54,68.2,53.5,68.4,53,68.4z"/>
		<path class="st3" d="M27.2,26.2c0-0.1-0.2-0.3-0.6-0.7c-0.1-0.2-0.2-0.3-0.2-0.4c-0.1,0-0.3,0-0.4,0.1c-0.1,0.1-0.1,0.2-0.1,0.4
			c0,0,0,0,0,0c0,0,0.1,0.2,0.3,0.4s0.3,0.4,0.3,0.4l0.1,0.1c0.1,0.1,0.1,0.1,0.2,0.2c0.2,0.3,0.3,0.4,0.1,0.6
			c-0.1,0-0.1,0.1-0.2,0.1c0,0.1,0,0.2,0.1,0.3c0.1,0.1,0.3,0.1,0.5,0C27.9,27.2,27.7,26.9,27.2,26.2z"/>
		<path class="st3" d="M31.5,23.2c0,0-0.1-0.1-0.2-0.3l-0.2-0.3c-0.1-0.2-0.2-0.4-0.2-0.5c-0.1,0-0.3,0-0.4,0.1
			c-0.1,0.1-0.2,0.2-0.1,0.3c0,0,0.1,0.1,0.2,0.4c0.1,0.2,0.2,0.3,0.2,0.4c0.1,0.2,0.1,0.3,0,0.3c-0.1,0.1-0.2,0.1-0.3,0L30.2,23
			c-0.1-0.1-0.1-0.2-0.1-0.4c-0.1,0-0.3,0-0.4,0.1c-0.1,0.1-0.2,0.2-0.1,0.3c0,0,0.1,0.1,0.2,0.3c0.1,0.2,0.2,0.3,0.2,0.3
			c0.1,0.2,0.1,0.3,0,0.3c0,0-0.1,0-0.1,0.1c-0.1,0-0.1,0-0.2-0.1l-0.1-0.2c-0.1-0.1-0.1-0.2-0.1-0.2c-0.1-0.1-0.1-0.2-0.1-0.3
			c-0.1,0-0.3,0-0.4,0.1c-0.1,0.1-0.2,0.2-0.1,0.3c0,0,0,0,0,0c0,0,0.1,0.1,0.2,0.2c0.1,0.1,0.1,0.2,0.2,0.3c0.1,0.2,0.1,0.3,0,0.3
			L28.5,25c0,0-0.1-0.1-0.2-0.3c-0.1-0.1-0.1-0.1-0.1-0.1c-0.1-0.1-0.2-0.2-0.2-0.3c-0.1-0.2-0.2-0.3-0.2-0.4c-0.1,0-0.3,0-0.4,0.1
			c-0.3,0.2-0.5,0.5-0.6,0.8c-0.1,0.3,0,0.6,0.2,0.9c0.1,0.1,0.2,0.2,0.3,0.3c0.3,0.1,0.6,0,1-0.2l0,0c0.1,0.1,0.2,0.3,0,0.5
			c-0.1,0-0.1,0.1-0.2,0c0,0.1,0,0.2,0.1,0.3c0.1,0.1,0.3,0.1,0.5,0c0.3-0.2,0.4-0.4,0.3-0.7c0-0.1-0.1-0.3-0.2-0.4l0.9-0.6
			c0.1-0.1,0.2-0.3,0.2-0.4c0.2,0.1,0.4,0.1,0.7-0.1c0.2-0.1,0.2-0.2,0.2-0.4c0.2,0.1,0.4,0,0.6-0.1S31.6,23.5,31.5,23.2z
			 M27.7,25.5c-0.1,0-0.2,0-0.3-0.1c-0.1-0.2-0.1-0.7,0-0.9c0,0,0.2,0.3,0.6,0.8C28,25.5,27.8,25.5,27.7,25.5z"/>
		<path class="st3" d="M34.9,19.5c0-0.1-0.2-0.2-0.3-0.1c0,0,0,0,0,0c-0.1,0-0.2,0.2-0.2,0.3c0,0,0,0,0,0c0,0.1,0.2,0.2,0.3,0.1
			c0,0,0,0,0,0C34.8,19.9,34.9,19.7,34.9,19.5C34.9,19.5,34.9,19.5,34.9,19.5z M35.5,19.3c0-0.1-0.2-0.2-0.3-0.1c0,0,0,0,0,0
			c-0.1,0-0.2,0.2-0.2,0.3c0,0,0,0,0,0c0,0.1,0.2,0.2,0.3,0.1c0,0,0,0,0,0C35.5,19.6,35.5,19.5,35.5,19.3
			C35.5,19.3,35.5,19.3,35.5,19.3L35.5,19.3z"/>
		<path class="st3" d="M39.1,19.9c-0.1-0.3-0.3-0.6-0.5-0.7c-0.2-0.1-0.7-0.1-1,0.1c-0.2,0.1-0.3,0.2-0.4,0.3
			c-0.1,0.1-0.2,0.3-0.2,0.4c0-0.1,0-0.2,0-0.3c-0.1-0.1-0.3-0.1-0.4,0c-0.1,0-0.2,0.2-0.2,0.3c0,0,0,0,0,0c0,0,0.1,0.2,0.1,0.4
			c0.1,0.3,0.1,0.4,0.1,0.5l-0.4,0.2c-0.1,0-0.2,0-0.3-0.2c0,0,0,0,0,0l-0.2-0.6c-0.1-0.2-0.1-0.3-0.1-0.4c-0.1,0-0.3,0-0.4,0
			c-0.4,0.1-0.7,0.3-0.8,0.6c-0.1,0.3-0.2,0.6-0.1,0.9c0.1,0.4,0.6,0.7,1.1,0.5l0.2-0.1c0.2,0,0.3-0.1,0.4-0.3
			c0.1,0.1,0.2,0.1,0.3,0l1.8-0.5C38.8,20.9,39.2,20.4,39.1,19.9z M35.4,21.4c-0.2,0.1-0.4,0-0.5-0.2c-0.1-0.2,0-0.6,0.3-0.8
			l0.3,0.7C35.6,21.3,35.5,21.4,35.4,21.4C35.4,21.4,35.4,21.4,35.4,21.4z M37.8,20.7l-0.6,0.2l0,0c0-0.3,0.2-0.8,0.5-0.9
			c0.3-0.1,0.7,0,0.7,0.3C38.5,20.4,38.3,20.5,37.8,20.7L37.8,20.7z"/>
		<path class="st3" d="M42.4,18.4c0-0.1-0.1-0.2-0.3-0.2c0,0,0,0,0,0c-0.2,0-0.3,0.1-0.2,0.3c0,0,0,0,0,0c0,0.1,0.1,0.2,0.2,0.2
			c0,0,0,0,0,0C42.3,18.6,42.4,18.5,42.4,18.4C42.4,18.4,42.4,18.4,42.4,18.4z"/>
		<path class="st3" d="M44.5,19.6c0,0.3-0.1,0.5-0.4,0.5l-0.9,0c-0.2,0-0.3,0-0.3-0.1c-0.1,0.2-0.2,0.2-0.5,0.3l-2.4,0.4
			c-0.3,0.1-0.5-0.1-0.5-0.4c-0.1-0.3-0.1-0.7-0.2-1.2l-0.2-1c0-0.1,0-0.3,0.2-0.3c0,0,0,0,0,0c0.1,0,0.3,0,0.4,0c0,0.1,0,0.2,0,0.4
			c0,0,0.1,0.3,0.2,0.9c0.1,0.5,0.2,0.8,0.2,0.9c0,0.2,0.1,0.3,0.2,0.2l1.9-0.3c-0.2-0.1-0.5-0.2-0.7-0.3c-0.4-0.2-0.6-0.3-0.6-0.4
			c0-0.1-0.1-0.2,0-0.2c0-0.2,0.2-0.3,0.4-0.4c0,0.2,0.4,0.5,0.8,0.7c0.5,0.2,0.9,0.3,1.1,0.3c0,0.1,0,0.1,0,0.2l0.9-0.1
			c0.1,0,0.2-0.1,0.2-0.3l-0.1-1c0-0.6-0.1-1-0.1-1c0-0.1,0.1-0.3,0.2-0.3c0,0,0,0,0,0c0.1,0,0.3,0,0.4,0.1c0,0.1-0.1,0.2,0,0.4
			c0,0,0,0.4,0.1,1L44.5,19.6z"/>
		<path class="st3" d="M45.4,18.7c0-0.7,0-1.1,0-1.1c0-0.2,0-0.4,0.1-0.4c-0.1-0.1-0.2-0.1-0.4-0.1c-0.1,0-0.3,0.1-0.3,0.2
			c0,0,0,0,0,0c0,0,0,0.4,0,1.1l0,1.1c0,0.2,0,0.4-0.1,0.4c0.1,0.1,0.2,0.1,0.4,0.1c0.1,0,0.3-0.1,0.3-0.2c0,0,0,0,0,0L45.4,18.7z"
			/>
		<path class="st3" d="M48.4,17.1c-0.1,0-0.3,0.1-0.3,0.2c0,0,0,0,0,0l-0.1,1.1c0,0.7-0.1,1.1-0.1,1.2c0,0.4-0.1,0.6-0.4,0.6
			c-0.4,0-0.7-0.2-0.6-0.6c0-0.1,0-0.2,0.1-0.3c-0.1-0.1-0.2-0.1-0.3-0.1c-0.1,0-0.2,0.1-0.2,0.4c0,0.8,0.4,1.3,1.1,1.3
			c0.5,0,0.9-0.4,0.9-1c0,0,0-0.4,0.1-1.1l0.1-1.2c0-0.2,0-0.3,0.1-0.4C48.7,17.2,48.6,17.1,48.4,17.1z"/>
		<path class="st3" d="M57.1,19c-0.1-0.1-0.3,0-0.3,0.1c0,0,0,0,0,0c0,0-0.1,0.3-0.3,0.9l-0.3,1c-0.1,0.2-0.1,0.2-0.3,0.2l-0.4-0.2
			c-0.1,0-0.1-0.1-0.1-0.3c0,0,0,0,0,0c0.1-0.3,0.1-0.4,0.1-0.5c0.1-0.2,0.1-0.4,0.2-0.5c-0.1-0.1-0.2-0.2-0.4-0.2
			c-0.2,0-0.2,0-0.3,0.2c0,0,0,0.2-0.1,0.4c-0.1,0.2-0.1,0.4-0.1,0.4c-0.1,0.2-0.1,0.2-0.2,0.2c-0.1,0-0.2-0.1-0.2-0.2l0.2-0.6
			c0-0.1,0.1-0.3,0.2-0.4c-0.1-0.1-0.2-0.2-0.4-0.2c-0.1,0-0.2,0-0.3,0.2c0,0,0,0.1-0.1,0.3c-0.1,0.2-0.1,0.3-0.1,0.4
			c-0.1,0.2-0.1,0.2-0.2,0.2c-0.1,0-0.2-0.1-0.2-0.2l0.1-0.3c0-0.1,0.1-0.2,0.1-0.2c0-0.1,0.1-0.2,0.2-0.3c-0.1-0.1-0.2-0.2-0.3-0.2
			c-0.1,0-0.3,0-0.3,0.1c0,0,0,0,0,0c0,0,0,0.1-0.1,0.3c0,0.2-0.1,0.3-0.1,0.3c-0.1,0.2-0.1,0.2-0.2,0.2l-0.8-0.1
			c0.1-0.1,0.1-0.2,0.1-0.3c0.1-0.7-0.3-1.1-1.1-1.3c-0.1,0-0.3,0-0.4,0.1c0,0.1,0,0.2,0,0.4l-0.1,0.6c0,0.2-0.1,0.2-0.2,0.2
			l-0.6-0.1c-0.1,0-0.2-0.1-0.1-0.3c0,0,0-0.3,0.1-0.9s0.1-0.8,0.1-0.9c0-0.2,0.1-0.3,0.1-0.4c-0.1-0.1-0.2-0.2-0.4-0.2
			c-0.1,0-0.3,0.1-0.3,0.2c0,0,0,0,0,0l-0.1,1c-0.1,0.5-0.1,0.9-0.1,1.2c0,0.3,0.1,0.5,0.4,0.5c0.3,0,0.6,0.1,0.9,0.1
			c0.1,0,0.2,0,0.3-0.1c0.1,0.1,0.2,0.2,0.3,0.2l0.3,0.1c0.2,0.1,0.5,0,0.6-0.1c0,0.2,0.1,0.2,0.3,0.3l0.8,0.2c0.2,0,0.3,0,0.4-0.2
			c0.1,0.2,0.2,0.3,0.5,0.4c0.2,0.1,0.3,0,0.4-0.1c0.1,0.2,0.2,0.3,0.5,0.4c0.1,0,0.3,0,0.4,0c0,0.1,0.1,0.1,0.1,0.1
			c0,0,0.1,0.1,0.2,0.1l0.6,0.3c0.3,0.1,0.5,0,0.6-0.3l0.3-0.9c0.2-0.6,0.3-0.9,0.3-1c0.1-0.2,0.1-0.3,0.2-0.4
			C57.4,19.1,57.2,19,57.1,19z M51.6,19.7c0,0.2-0.2,0.3-0.4,0.3C51,20,51,19.9,51,19.8c0,0,0,0,0,0l0.2-0.8
			C51.4,19.1,51.6,19.5,51.6,19.7z"/>
		<path class="st3" d="M55,18.7c-0.1,0-0.1,0-0.2,0c-0.1,0-0.1,0.1-0.1,0.2c0,0.1,0,0.2,0.1,0.3c0,0,0,0,0,0c0.1,0,0.3,0,0.3-0.2
			c0,0,0,0,0,0C55.2,18.9,55.2,18.7,55,18.7C55,18.7,55,18.7,55,18.7z M54.9,18c-0.1,0-0.3,0-0.3,0.2c0,0,0,0,0,0c0,0.1,0,0.1,0,0.2
			c0,0.1,0.1,0.1,0.1,0.1c0.1,0,0.3,0,0.3-0.2C55.1,18.2,55,18.1,54.9,18C54.9,18,54.9,18,54.9,18z M54.4,18.5c-0.1,0-0.3,0-0.3,0.2
			c0,0,0,0,0,0c0,0.1,0,0.1,0,0.2c0,0.1,0.1,0.1,0.1,0.1c0.1,0,0.3,0,0.3-0.2c0,0,0,0,0,0C54.6,18.7,54.5,18.6,54.4,18.5
			C54.4,18.5,54.4,18.5,54.4,18.5L54.4,18.5z"/>
		<path class="st3" d="M58.1,19.3c-0.1-0.1-0.3,0-0.3,0.1c0,0,0,0,0,0c0,0-0.1,0.4-0.4,1l-0.4,1c-0.1,0.2-0.2,0.3-0.2,0.4
			c0.1,0.1,0.2,0.2,0.3,0.3c0.1,0.1,0.3,0,0.3-0.1c0,0,0,0,0,0l0.4-1c0.2-0.7,0.4-1,0.4-1c0.1-0.2,0.2-0.3,0.2-0.4
			C58.3,19.5,58.2,19.4,58.1,19.3z"/>
		<path class="st3" d="M60.7,20.9c-0.1-0.1-0.3,0-0.4,0.1c0,0,0,0,0,0c-0.1,0.1,0,0.2,0.1,0.3c0,0,0,0,0,0c0.1,0.1,0.3,0,0.4-0.1
			c0,0,0,0,0,0C60.8,21.1,60.8,21,60.7,20.9C60.7,20.9,60.7,20.9,60.7,20.9z M60.1,20.6c-0.1-0.1-0.3,0-0.4,0.1c0,0,0,0,0,0
			c-0.1,0.1,0,0.2,0.1,0.3c0,0,0,0,0,0c0.1,0.1,0.3,0,0.4-0.1c0,0,0,0,0,0C60.2,20.8,60.2,20.7,60.1,20.6
			C60.1,20.6,60.1,20.6,60.1,20.6z"/>
		<path class="st3" d="M63.9,23.8c-0.1-0.1-0.2-0.1-0.4-0.1c0,0.1-0.1,0.2-0.2,0.4L63,24.5c0,0.1-0.1,0.1-0.2,0.1c0,0-0.1,0-0.1,0
			l-0.6-0.4c0.2-0.1,0.3-0.2,0.4-0.4c0.3-0.4,0.1-1-0.5-1.3c-0.3-0.2-0.5-0.2-0.7-0.2c-0.1,0-0.2,0.1-0.3,0.2c0,0.1,0,0.3,0,0.4
			c-0.1,0.3-0.1,0.5-0.1,0.5c-0.3-0.2-0.6-0.3-0.9-0.5c-0.1,0-0.1-0.2,0-0.3c0,0,0,0,0,0l0.3-0.5c0.1-0.2,0.2-0.3,0.2-0.3
			c-0.1-0.1-0.2-0.2-0.3-0.3c-0.3-0.2-0.7-0.2-1-0.2c-0.3,0.1-0.5,0.3-0.7,0.5c-0.2,0.4-0.1,0.9,0.4,1.1l0.2,0.1
			c0.1,0.1,0.3,0.1,0.4,0.1c0,0.1,0.1,0.2,0.2,0.3c1.5,0.9,2.5,1.5,2.6,1.6c0.1,0,0.1,0.1,0.2,0.1c0,0,0.1,0,0.1,0
			c0,0.1,0.1,0.2,0.2,0.3l0.3,0.2c0.5,0.3,0.9,0.2,1.2-0.2C64.7,24.8,64.6,24.2,63.9,23.8z M59.4,22.5c0,0.1-0.1,0.1-0.2,0.1
			c0,0,0,0,0,0c-0.2-0.1-0.3-0.3-0.2-0.5c0.1-0.2,0.5-0.4,0.8-0.3L59.4,22.5z M61.9,23.6c-0.1,0.2-0.3,0.3-0.6,0.2
			c0.1-0.5,0.2-0.8,0.2-0.9v0c0.1,0,0.2,0.1,0.2,0.1C62,23.1,62.1,23.3,61.9,23.6C62,23.6,62,23.6,61.9,23.6L61.9,23.6z M64,25.1
			c-0.1,0.2-0.3,0.2-0.5,0.1c-0.1-0.1-0.1-0.2-0.1-0.2c0,0,0,0,0,0l0.5-0.6C64.1,24.5,64.1,24.9,64,25.1L64,25.1z"/>
		<path class="st3" d="M67.2,28c-0.1,0.1-0.2,0.2-0.4,0.3c-0.2,0.1-0.3,0-0.6-0.2l-1.9-1.6c-0.2-0.2-0.2-0.4,0-0.7s0.5-0.6,0.8-1
			l0.6-0.8c0.1-0.1,0.2-0.1,0.3-0.1c0,0,0,0,0,0c0.1,0.1,0.2,0.2,0.2,0.3c-0.1,0-0.2,0.1-0.3,0.3c0,0-0.2,0.2-0.5,0.7
			C65.2,25.7,65,25.9,65,26c-0.1,0.1-0.1,0.2,0,0.3l1.4,1.2c-0.1-0.3-0.4-1.2-0.4-1.4c0-0.1,0.1-0.1,0.1-0.2c0.2-0.1,0.4-0.1,0.6,0
			c-0.1,0.1-0.1,0.6,0,1.1C66.9,27.5,67.1,27.9,67.2,28z"/>
		<path class="st3" d="M65.4,27.6c-0.1-0.1-0.3-0.1-0.4,0c0,0,0,0,0,0c-0.1,0.1-0.1,0.2,0,0.3c0,0,0,0,0,0c0.1,0.1,0.3,0.1,0.4,0
			c0,0,0,0,0,0C65.6,27.9,65.5,27.7,65.4,27.6C65.4,27.6,65.4,27.6,65.4,27.6z"/>
		<path class="st3" d="M25.8,75.1c0.1,0.2,0.2,0.3,0.3,0.4c0.2,0.2,0.5,0.2,0.6,0c0.1-0.2,0.1-0.3-0.1-0.6c-0.2-0.3-0.3-0.6-0.1-0.8
			c0.2-0.2,0.6-0.3,0.9,0c0.1,0.1,0.2,0.2,0.3,0.4l-0.2,0.1c-0.1-0.1-0.2-0.2-0.3-0.3c-0.2-0.2-0.4-0.1-0.5,0
			c-0.1,0.1-0.1,0.3,0.1,0.6c0.2,0.3,0.3,0.6,0.1,0.8s-0.6,0.3-1,0c-0.2-0.1-0.3-0.3-0.4-0.4L25.8,75.1z"/>
		<path class="st3" d="M28.2,74.6l0.2,0.2l-0.5,0.7h0c0.1,0,0.2,0,0.3,0c0.1,0,0.2,0,0.3,0.1c0.2,0.1,0.4,0.4,0.1,0.8l-0.5,0.7
			L27.9,77l0.5-0.7c0.1-0.2,0.2-0.4-0.1-0.6c-0.1-0.1-0.3-0.1-0.5,0c0,0-0.1,0.1-0.1,0.1l-0.5,0.7L27,76.3L28.2,74.6z"/>
		<path class="st3" d="M29.3,77.8l0.1-0.2h0c-0.2,0.1-0.4,0-0.5-0.1c-0.3-0.2-0.3-0.4-0.2-0.6c0.2-0.3,0.6-0.3,1.1,0l0,0
			c0.1-0.1,0.1-0.3-0.1-0.5c-0.1-0.1-0.3-0.1-0.4-0.1l0-0.2c0.2,0,0.4,0.1,0.5,0.2c0.4,0.3,0.4,0.6,0.2,0.8l-0.3,0.5
			c-0.1,0.1-0.1,0.2-0.2,0.3L29.3,77.8z M29.6,77.2c-0.3-0.2-0.6-0.3-0.7-0.1c-0.1,0.1,0,0.3,0.1,0.3c0,0,0,0,0,0
			c0.1,0.1,0.3,0.1,0.5,0c0,0,0,0,0.1-0.1L29.6,77.2z"/>
		<path class="st3" d="M30.4,77.3c0.1-0.1,0.1-0.2,0.2-0.4l0.2,0.1l-0.1,0.2h0c0.2-0.1,0.4-0.1,0.6,0c0.2,0.1,0.3,0.3,0.3,0.5h0
			c0.1,0,0.2-0.1,0.2-0.1c0.1,0,0.2,0,0.4,0.1c0.2,0.1,0.4,0.4,0.2,0.8l-0.4,0.8l-0.3-0.1l0.4-0.7c0.1-0.2,0.1-0.4-0.1-0.6
			c-0.1-0.1-0.3,0-0.4,0.1c0,0-0.1,0.1-0.1,0.1l-0.4,0.8l-0.3-0.1l0.4-0.8c0.1-0.2,0.1-0.4-0.1-0.5c-0.1-0.1-0.3,0-0.4,0.1
			c0,0-0.1,0.1-0.1,0.1l-0.4,0.8l-0.3-0.1L30.4,77.3z"/>
		<path class="st3" d="M33.1,79.8l0.1-0.2h0c-0.2,0.1-0.4,0.1-0.5,0c-0.3-0.1-0.4-0.4-0.3-0.6c0.1-0.3,0.5-0.4,1.1-0.1l0,0
			c0-0.1,0.1-0.3-0.2-0.5c-0.1-0.1-0.3-0.1-0.4-0.1l0-0.2c0.2,0,0.4,0,0.5,0.1c0.4,0.2,0.4,0.5,0.3,0.8l-0.2,0.5
			c0,0.1-0.1,0.2-0.1,0.3L33.1,79.8z M33.4,79.1c-0.3-0.1-0.6-0.2-0.7,0c-0.1,0.1,0,0.3,0.1,0.3c0,0,0,0,0,0c0.1,0.1,0.3,0,0.4-0.1
			c0,0,0,0,0-0.1L33.4,79.1z"/>
		<path class="st3" d="M34.6,78.1l0.3,0.1l-0.8,2l-0.3-0.1L34.6,78.1z"/>
		<path class="st3" d="M36.7,79c0.2,0,0.4,0.1,0.5,0.1c0.3,0.1,0.5,0.2,0.6,0.3c0.1,0.1,0.1,0.3,0.1,0.5c0,0.2-0.1,0.3-0.3,0.4
			c-0.2,0.1-0.4,0.1-0.7,0c-0.1,0-0.1,0-0.2-0.1L36.4,81l-0.3-0.1L36.7,79z M36.7,80c0.1,0,0.1,0.1,0.2,0.1c0.3,0.1,0.6,0,0.7-0.3
			c0.1-0.3-0.1-0.4-0.4-0.5c-0.1,0-0.2,0-0.3-0.1L36.7,80z"/>
		<path class="st3" d="M38.1,80.4c0-0.2,0.1-0.3,0.1-0.4l0.2,0.1l-0.1,0.3h0c0.1-0.2,0.3-0.2,0.5-0.2c0,0,0.1,0,0.1,0l-0.1,0.2
			c0,0-0.1,0-0.1,0c-0.2,0-0.4,0.1-0.5,0.2c0,0,0,0.1,0,0.1l-0.2,0.7l-0.3-0.1L38.1,80.4z"/>
		<path class="st3" d="M39,81.7l0.3-1.4l0.3,0.1l-0.3,1.4L39,81.7z M39.7,79.9c0,0.1-0.1,0.2-0.2,0.1c-0.1,0-0.2-0.1-0.1-0.2
			c0-0.1,0.1-0.1,0.2-0.1c0,0,0,0,0,0C39.6,79.7,39.7,79.8,39.7,79.9C39.7,79.9,39.7,79.9,39.7,79.9L39.7,79.9z"/>
		<path class="st3" d="M40.2,80.4l0.2,0.9c0,0.1,0,0.3,0.1,0.4h0c0.1-0.1,0.1-0.2,0.2-0.3l0.4-0.7l0.3,0.1L40.5,82l-0.3,0l-0.4-1.5
			L40.2,80.4z"/>
		<path class="st3" d="M42.3,82.2V82h0c-0.1,0.1-0.3,0.2-0.5,0.2c-0.3,0-0.5-0.3-0.4-0.5c0-0.3,0.4-0.5,1-0.4v0c0-0.1,0-0.3-0.3-0.4
			c-0.1,0-0.3,0-0.4,0.1l0-0.2c0.2-0.1,0.4-0.1,0.5-0.1c0.5,0.1,0.6,0.4,0.5,0.7l-0.1,0.5c0,0.1,0,0.2,0,0.3L42.3,82.2z M42.3,81.5
			c-0.3,0-0.7,0-0.7,0.2c0,0.1,0.1,0.3,0.2,0.3c0,0,0,0,0,0c0.2,0,0.3,0,0.4-0.2c0,0,0-0.1,0-0.1L42.3,81.5z"/>
		<path class="st3" d="M43.5,80.5l0,0.4l0.4,0l0,0.2l-0.4,0l-0.1,0.8c0,0.2,0,0.3,0.2,0.3c0.1,0,0.1,0,0.2,0v0.2c-0.1,0-0.2,0-0.3,0
			c-0.1,0-0.2-0.1-0.3-0.1c-0.1-0.1-0.1-0.2-0.1-0.4l0.1-0.8l-0.2,0l0-0.2l0.2,0l0-0.3L43.5,80.5z"/>
		<path class="st3" d="M44.3,81.7c0,0.4,0.2,0.5,0.5,0.5c0.2,0,0.3,0,0.4-0.1l0,0.2c-0.2,0.1-0.4,0.1-0.5,0.1
			c-0.5,0-0.8-0.3-0.8-0.8c0-0.4,0.3-0.8,0.8-0.8c0.5,0,0.6,0.4,0.6,0.7c0,0,0,0.1,0,0.1L44.3,81.7z M45.2,81.5
			c0-0.2-0.1-0.4-0.4-0.4c-0.3,0-0.4,0.2-0.5,0.4L45.2,81.5z"/>
		<path class="st3" d="M47.6,80.4l0.1,1.2c0,0.5,0.3,0.6,0.6,0.6c0.3,0,0.5-0.2,0.5-0.7l-0.1-1.2l0.3,0l0.1,1.2
			c0,0.6-0.3,0.9-0.8,0.9c-0.5,0-0.8-0.2-0.9-0.8l-0.1-1.2L47.6,80.4z"/>
		<path class="st3" d="M49.5,81.2c0-0.1,0-0.3-0.1-0.4l0.3,0l0,0.2h0c0.1-0.2,0.3-0.3,0.5-0.3c0.2,0,0.6,0,0.6,0.5L51,82l-0.3,0
			l-0.1-0.8c0-0.2-0.2-0.4-0.4-0.4c-0.2,0-0.3,0.1-0.3,0.3c0,0,0,0.1,0,0.1l0.1,0.9l-0.3,0L49.5,81.2z"/>
		<path class="st3" d="M51.4,80.1c0,0.1,0,0.2-0.1,0.2c-0.1,0-0.2,0-0.2-0.1c0-0.1,0-0.2,0.1-0.2c0,0,0,0,0,0
			C51.3,79.9,51.4,80,51.4,80.1C51.4,80.1,51.4,80.1,51.4,80.1z M51.4,82l-0.3-1.4l0.3,0l0.3,1.4L51.4,82z"/>
		<path class="st3" d="M52.1,80.4l0.5,0.7c0.1,0.1,0.1,0.2,0.2,0.3h0c0-0.1,0-0.3,0.1-0.4l0.1-0.9l0.3-0.1L53,81.6l-0.3,0.1
			l-0.9-1.3L52.1,80.4z"/>
		<path class="st3" d="M53.8,80.7c0.1,0.3,0.4,0.4,0.7,0.3c0.1,0,0.3-0.1,0.4-0.2l0.1,0.2c-0.1,0.1-0.3,0.2-0.5,0.2
			c-0.5,0.1-0.8-0.1-0.9-0.5s0.1-0.8,0.5-0.9c0.5-0.1,0.7,0.2,0.8,0.5c0,0,0,0.1,0,0.1L53.8,80.7z M54.6,80.3c0-0.2-0.2-0.4-0.5-0.3
			c-0.3,0.1-0.3,0.3-0.3,0.5L54.6,80.3z"/>
		<path class="st3" d="M55.2,80c-0.1-0.2-0.1-0.3-0.1-0.4l0.2-0.1l0.1,0.3h0c0-0.2,0.1-0.4,0.3-0.4c0,0,0.1,0,0.1,0l0.1,0.2
			c0,0-0.1,0-0.1,0c-0.2,0.1-0.3,0.2-0.3,0.4c0,0,0,0.1,0,0.1l0.2,0.7L55.5,81L55.2,80z"/>
		<path class="st3" d="M56.4,80.4c0.1,0,0.3,0,0.4,0c0.2-0.1,0.3-0.2,0.2-0.3s-0.1-0.2-0.4-0.1c-0.3,0-0.5-0.1-0.5-0.2
			c-0.1-0.2,0-0.5,0.4-0.6c0.1,0,0.3-0.1,0.4,0v0.2c-0.1,0-0.2,0-0.3,0c-0.2,0.1-0.2,0.2-0.2,0.3s0.1,0.1,0.4,0.1
			c0.3,0,0.5,0.1,0.5,0.3c0.1,0.2-0.1,0.5-0.4,0.6c-0.1,0.1-0.3,0.1-0.5,0.1L56.4,80.4z"/>
		<path class="st3" d="M57.5,78.3c0,0.1,0,0.2-0.1,0.2c-0.1,0-0.2,0-0.2-0.1l0,0c0-0.1,0-0.2,0.1-0.2c0,0,0,0,0,0
			C57.3,78.2,57.4,78.2,57.5,78.3C57.4,78.3,57.4,78.3,57.5,78.3z M57.8,80.2l-0.5-1.3l0.3-0.1l0.5,1.3L57.8,80.2z"/>
		<path class="st3" d="M58.2,78l0.2,0.4l0.4-0.2l0.1,0.2l-0.4,0.2l0.3,0.7c0.1,0.2,0.2,0.2,0.3,0.2c0.1,0,0.1-0.1,0.1-0.1l0.1,0.2
			c-0.1,0.1-0.1,0.1-0.2,0.1c-0.1,0.1-0.2,0.1-0.3,0c-0.1,0-0.2-0.1-0.3-0.3l-0.3-0.7L58,78.7l-0.1-0.2l0.2-0.1L58,78.1L58.2,78z"/>
		<path class="st3" d="M59.2,78l0.7,0.6c0.1,0.1,0.2,0.2,0.2,0.2h0c0-0.1,0-0.2,0-0.3L60,77.6l0.3-0.1l0.1,1.1c0,0.5,0,0.8-0.1,1.1
			c-0.1,0.1-0.1,0.2-0.2,0.3l-0.2-0.2c0.1-0.1,0.1-0.1,0.2-0.2c0.1-0.1,0.1-0.2,0.1-0.4c0,0,0,0,0-0.1c0,0,0,0,0-0.1l-1.1-0.9
			L59.2,78z"/>
		<path class="st3" d="M62.7,76.7l0.1,0.2l-0.7,0.4L62,77.1L62.7,76.7z"/>
		<path class="st3" d="M64.6,76.1c0.2,0,0.3-0.1,0.5-0.2c0.2-0.2,0.3-0.4,0.2-0.6c-0.1-0.2-0.3-0.2-0.6-0.1
			c-0.4,0.1-0.6,0.1-0.8-0.1c-0.2-0.3-0.1-0.6,0.2-0.9c0.1-0.1,0.3-0.2,0.5-0.2l0.1,0.2c-0.1,0-0.3,0.1-0.4,0.2
			C64,74.7,64,74.9,64.1,75c0.1,0.2,0.3,0.1,0.6,0c0.4-0.1,0.6-0.1,0.8,0.1s0.1,0.6-0.3,0.9c-0.2,0.1-0.3,0.2-0.5,0.2L64.6,76.1z"/>
		<path class="st3" d="M65.3,74.2l0.8,0.4c0.1,0.1,0.2,0.1,0.3,0.2v0c0-0.1-0.1-0.2-0.1-0.3L66,73.6l0.2-0.2l0.3,1.1
			c0.2,0.5,0.2,0.8,0.2,1c0,0.1-0.1,0.3-0.2,0.4l-0.2-0.1c0.1-0.1,0.1-0.2,0.1-0.3c0-0.1,0-0.3,0-0.4c0,0,0,0,0-0.1c0,0,0,0-0.1,0
			L65,74.4L65.3,74.2z"/>
		<path class="st3" d="M66.7,73.6c-0.1-0.1-0.2-0.2-0.3-0.3l0.2-0.2l0.2,0.2l0,0c-0.1-0.2,0-0.4,0.1-0.5c0,0,0,0,0.1,0l0.2,0.2
			c0,0-0.1,0-0.1,0.1c-0.1,0.1-0.2,0.3-0.1,0.5c0,0,0,0.1,0.1,0.1l0.5,0.6l-0.2,0.2L66.7,73.6z"/>
		<path class="st3" d="M67.2,72c0.1,0.1,0.1,0.2,0,0.3c-0.1,0.1-0.2,0.1-0.3,0l0,0c-0.1-0.1-0.1-0.2,0-0.2c0,0,0,0,0,0
			C67,71.9,67.1,71.9,67.2,72C67.1,72,67.1,72,67.2,72z M68.2,73.5l-1-1l0.2-0.2l1,1L68.2,73.5z"/>
		<path class="st3" d="M69.4,72.3l-0.1-0.1l0,0c0,0.2,0,0.4-0.2,0.5c-0.2,0.2-0.5,0.2-0.6,0.1c-0.3-0.2-0.2-0.6,0.3-1.1l0,0
			c-0.1-0.1-0.3-0.2-0.5,0c-0.1,0.1-0.2,0.2-0.2,0.4L67.9,72c0-0.2,0.1-0.3,0.3-0.5c0.3-0.3,0.6-0.2,0.8,0l0.4,0.4
			c0.1,0.1,0.2,0.2,0.3,0.2L69.4,72.3z M68.9,71.8c-0.2,0.2-0.4,0.5-0.2,0.7c0.1,0.1,0.3,0.1,0.3,0c0,0,0,0,0,0
			c0.1-0.1,0.2-0.3,0.1-0.4c0,0,0-0.1,0-0.1L68.9,71.8z"/>
		<polygon class="st3" points="33.5,22.1 32.4,22.6 32.1,22.1 32.2,22.1 33.3,21.5 33.4,21.7 		"/>
		<path class="st0" d="M107.6,31.4c-0.3-0.2-0.6-0.4-1-0.4c-0.4,0-0.8,0.1-1.1,0.4c-0.3,0.3-0.5,0.7-0.5,1.1c0,0.3,0.1,0.7,0.4,0.9
			v0c0.3,0.2,0.6,0.4,0.9,0.3c0.4,0,0.8-0.2,1.1-0.4c0.3-0.3,0.5-0.7,0.4-1.1C108,32,107.9,31.6,107.6,31.4z M104,31.4
			c-0.3-0.2-0.6-0.4-1-0.4c-0.4,0-0.8,0.1-1.1,0.4c-0.3,0.3-0.5,0.7-0.4,1.1c0,0.3,0.1,0.7,0.4,0.9v0c0.3,0.2,0.6,0.4,0.9,0.3
			c0.4,0,0.8-0.2,1.1-0.4c0.3-0.3,0.5-0.7,0.4-1.1C104.4,32,104.2,31.6,104,31.4z"/>
		<path class="st0" d="M124,36.6c-0.5-0.5-1.3-0.8-2.3-1c-0.9-0.2-1.9-0.2-2.8,0c-0.9,0.2-1.7,0.6-2.5,1.2c-0.7,0.6-1.2,1.2-1.6,2
			c0.1-0.9,0.2-1.5,0.3-1.7c-0.6-0.4-1.2-0.7-2-0.7c-0.5,0-0.8,0.1-1.1,0.4c-0.3,0.3-0.4,0.6-0.4,1l0.1,2.5c0,1.4,0,2.3,0,2.9h-2.3
			v0h-0.9c-0.2,0-0.5-0.1-0.7-0.4c-0.2-0.3-0.3-0.7-0.3-1.1c0,0,0-0.1,0-0.1l0-3.2c0-1.1,0.1-1.8,0.4-2.2c-0.6-0.4-1.2-0.6-2-0.6
			c-2.2-0.1-4,0.4-5.3,1.5c-1.2,1-1.9,2.4-2,4.3c0,1.3,0.3,2.3,1.2,3.2c0.9,0.9,2.1,1.4,3.6,1.4h1.1c1,0,1.8-0.3,2.3-0.8
			c0.3,0.5,0.9,0.8,1.6,0.8h1.4v0h9.4c1.8,0,3.3-0.4,4.5-1.3c1.2-0.9,1.8-2,1.8-3.4C125.8,39.1,125.2,37.6,124,36.6z M104.5,42
			c0,0.7-0.3,1.1-1,1.1c-1.4,0-2.1-0.7-2.1-2c0-0.7,0.3-1.4,0.9-2.1c0.6-0.7,1.3-1.2,2-1.4L104.5,42L104.5,42z M122.4,41.1
			c-0.2,1.3-1.6,2-4.2,2h-3.5v-0.3c0.4-0.9,0.9-1.8,1.6-2.5c0.8-1,1.7-1.5,2.6-1.7c0.9-0.2,1.8,0,2.5,0.6
			C122.1,39.7,122.5,40.3,122.4,41.1z"/>
		<path class="st0" d="M145.1,34.5c-0.3-0.2-0.6-0.4-1-0.4c-0.4,0-0.8,0.1-1.1,0.4c-0.3,0.3-0.5,0.7-0.4,1.1c0,0.3,0.1,0.7,0.4,0.9
			c0.3,0.2,0.6,0.4,0.9,0.3c0.4,0,0.8-0.1,1.1-0.4c0.3-0.3,0.4-0.7,0.4-1.1C145.5,35,145.4,34.7,145.1,34.5z"/>
		<path class="st0" d="M156.9,32.1l0,10.9c0,1.8-0.8,2.7-2.4,2.7H149c-0.9,0-1.5-0.4-1.8-1c-0.2,0.4-0.6,0.7-1,0.9
			c-0.4,0.1-1.1,0.2-2,0.2H130c-1.6,0-2.4-0.9-2.4-2.6c0-2.7,0-5,0-6.9l-0.1-5.6c0-0.4,0.1-0.8,0.4-1.1c0.3-0.3,0.6-0.4,1.1-0.4
			c0.7,0,1.4,0.2,2,0.7c-0.2,0.4-0.4,1.2-0.4,2.3l0,9.5c0,0.5,0.1,0.9,0.2,1.1c0.1,0.2,0.4,0.3,0.8,0.3h10.8
			c-0.7-0.3-1.9-0.9-3.6-1.9c-1.8-1.1-2.9-2-3.2-2.6c-0.2-0.4-0.3-0.9-0.1-1.3c0.2-0.5,0.5-0.9,0.9-1.3c0.4-0.3,0.9-0.5,1.5-0.6
			c0,0.5,0.4,1.1,1.2,1.9c0.8,0.8,1.7,1.6,2.9,2.3c1.2,0.8,2.3,1.4,3.3,1.8c1.1,0.4,1.8,0.5,2.3,0.3c0,0.4,0,0.8,0,1.2h3.3v0h2
			c0.4,0,0.6-0.1,0.8-0.3c0.1-0.2,0.2-0.6,0.2-1.1l-0.1-5.6c0-3,0-4.8,0-5.4c0-0.4,0.1-0.8,0.4-1.1c0.3-0.3,0.6-0.4,1.1-0.4
			c0.8,0,1.5,0.2,2,0.7C157.1,30.2,156.9,30.9,156.9,32.1z"/>
		<path class="st0" d="M162.2,38.2l0.1,6c0,0.4-0.1,0.8-0.4,1.1c-0.3,0.3-0.6,0.4-1.1,0.4c-0.8,0-1.5-0.2-2-0.7
			c0.2-0.4,0.4-1.2,0.4-2.3l-0.1-6.1c-0.1-3.6-0.1-5.6-0.1-6c0-0.4,0.1-0.8,0.4-1.1c0.3-0.3,0.6-0.4,1.1-0.4c0.8,0,1.5,0.2,2,0.7
			c-0.2,0.4-0.4,1.2-0.4,2.3C162.1,32.6,162.2,34.6,162.2,38.2z"/>
		<path class="st0" d="M180.1,32.1l0,12.4c0,1.8-0.4,3.2-1.3,4.2c-0.9,1-2,1.6-3.5,1.6c-2,0-3.6-0.6-4.8-1.8
			c-1.2-1.2-1.8-2.9-1.8-4.9c0-1.5,0.4-2.2,1.2-2.2c0.4,0,1,0.2,1.7,0.7c-0.3,0.5-0.4,1-0.4,1.6c0,1.1,0.4,2,1.1,2.6
			c0.7,0.6,1.6,0.8,2.6,0.7c0.8-0.1,1.3-0.4,1.6-1s0.5-1.4,0.5-2.6c0-0.8,0-2.9,0-6.5l-0.1-6.3c0-0.4,0.1-0.8,0.4-1.1
			s0.6-0.4,1.1-0.4c0.7,0,1.4,0.2,2,0.7C180.2,30.2,180.1,31,180.1,32.1z"/>
		<path class="st0" d="M215.4,31.5c-0.3-0.2-0.6-0.4-0.9-0.4c-0.4,0-0.8,0.2-1.1,0.4c-0.3,0.3-0.5,0.6-0.4,1c0,0.3,0.1,0.7,0.3,0.9
			c0.2,0.2,0.6,0.4,0.9,0.3c0.4,0,0.8-0.1,1.1-0.4c0.3-0.3,0.4-0.7,0.4-1.1C215.8,32.1,215.7,31.8,215.4,31.5z M213.8,28.3
			c-0.3-0.2-0.6-0.4-1-0.4c-0.4,0-0.8,0.1-1.1,0.4c-0.3,0.3-0.5,0.7-0.4,1.1c0,0.3,0.1,0.7,0.3,0.9c0.3,0.2,0.6,0.4,0.9,0.3
			c0.4,0,0.8-0.2,1.1-0.4c0.3-0.3,0.5-0.7,0.5-1.1C214.2,28.8,214,28.5,213.8,28.3z M211.8,31.5c-0.3-0.2-0.6-0.4-0.9-0.4
			c-0.4,0-0.8,0.2-1.1,0.4c-0.3,0.3-0.5,0.7-0.4,1.1c0,0.3,0.1,0.7,0.4,0.9c0.2,0.2,0.6,0.4,0.9,0.4c0.4,0,0.8-0.1,1.1-0.4
			c0.3-0.3,0.5-0.7,0.4-1.1C212.2,32.1,212.1,31.8,211.8,31.5z"/>
		<path class="st0" d="M227.5,29.8c-0.6-0.4-1.2-0.7-2-0.7c-0.5,0-0.8,0.1-1.1,0.4s-0.4,0.6-0.4,1.1c0,0.6,0,2.4,0,5.4l0.1,5.6
			c0,0.5-0.1,0.9-0.2,1.1c-0.1,0.2-0.4,0.3-0.8,0.3h-2.9c-0.2,0-0.4-0.1-0.6-0.4c-0.2-0.3-0.3-0.7-0.3-1.1c0-0.1,0-0.1,0-0.2
			c0-1.5,0-2.4,0-2.6c0-1.4,0.1-2.3,0.4-2.7c-0.5-0.4-1.2-0.7-2.2-0.7c-0.9,0-1.3,0.5-1.3,1.4l0.1,2.3c0,1.2,0,2,0,2.5
			c0,0.5-0.1,0.9-0.2,1.1c-0.2,0.2-0.4,0.3-0.8,0.3c-0.4,0-0.8,0-0.9-0.1c-0.3-0.1-0.4-0.4-0.4-0.8l0-3.3c0-1,0.1-1.7,0.4-2.1
			c-0.5-0.4-1.2-0.6-2.2-0.6c-0.8,0-1.3,0.5-1.3,1.4l0.1,2c0,1,0,1.8,0,2.2c0,0.5-0.1,0.9-0.2,1.1c-0.1,0.2-0.4,0.3-0.8,0.3
			c-0.4,0-0.7,0-0.9-0.1c-0.3-0.1-0.4-0.4-0.5-0.7l0-1.4c0-0.5,0-0.9,0-1.4c0-0.9,0.1-1.5,0.4-1.9c-0.5-0.4-1.2-0.7-2-0.7
			c-0.5,0-0.8,0.1-1.1,0.4c-0.3,0.3-0.4,0.6-0.4,1.1c0,0.2,0,0.7,0.1,1.6c0,1,0.1,1.6,0.1,1.8c0,0.5-0.1,0.9-0.2,1.1
			c-0.1,0.2-0.4,0.3-0.8,0.3h-5c0.3-0.6,0.4-1.3,0.4-1.9c-0.1-1.8-0.7-3.3-2-4.3c-1.3-1-3-1.5-5.2-1.5c-0.8,0-1.4,0.2-2,0.6
			c0.2,0.4,0.4,1.1,0.4,2.2l0,3.4c0,0.4-0.1,0.8-0.3,1c-0.2,0.2-0.4,0.4-0.6,0.4h-3.8c-0.4,0-0.6-0.1-0.8-0.3
			c-0.1-0.2-0.2-0.6-0.2-1.1l0-9.5c0-1.2,0.1-1.9,0.4-2.3c-0.6-0.5-1.3-0.7-2-0.7c-0.5,0-0.8,0.1-1.1,0.4c-0.3,0.3-0.4,0.6-0.4,1.1
			l0.1,5.6c0,1.9,0,4.2,0,6.9c0,1.8,0.8,2.6,2.4,2.6h5.4c0.7,0,1.2-0.2,1.5-0.7c0.4,0.4,1,0.7,1.8,0.7h1.7c1.4,0,2.5-0.4,3.4-1.2
			c0.2,0.8,0.8,1.2,1.8,1.2h5.8c0.9,0,1.6-0.5,2-1.5c0.6,1,1.7,1.5,3.3,1.5c1.1,0,1.8-0.4,2.2-1.3c0.6,0.9,1.7,1.3,3.2,1.3
			c0.9,0,1.5-0.3,1.9-0.8c0.4,0.5,0.9,0.8,1.5,0.8l0.9,0h3.6c1.6,0,2.4-0.9,2.4-2.7l0-10.9C227.2,30.9,227.3,30.2,227.5,29.8z
			 M195,43.1c-0.6,0-1-0.4-1-1.1l0.1-4.4c0.7,0.2,1.4,0.6,2,1.4c0.6,0.7,0.9,1.4,0.9,2.1C197.1,42.5,196.4,43.1,195,43.1z"/>
		<g class="st4">
			<path class="st0" d="M109.8,68.2c-0.7,0.5-1.3,0.8-1.8,0.8c-0.4,0-0.8-0.2-1-0.6c-0.2-0.3-0.5-0.9-0.8-1.9h-3.5
				c-0.4,0.8-0.6,1.3-0.6,1.7c0,0.1,0,0.3,0.1,0.4c-0.4,0.2-0.9,0.3-1.3,0.3c-0.4,0-0.6-0.1-0.8-0.2c-0.2-0.1-0.3-0.4-0.3-0.7
				c0-0.3,0.3-1.2,1-2.6c1-2,1.8-3.7,2.4-5.1c-0.1-0.3-0.3-0.5-0.4-0.6c0.6-0.3,1.1-0.5,1.6-0.5c0.4,0,0.8,0.1,1.1,0.3
				c0.2,0.2,0.5,0.6,0.7,1.1c0.1,0.2,0.4,0.9,0.9,2.1c0.5,1.2,0.9,2.2,1.4,3.2C108.9,67,109.3,67.7,109.8,68.2L109.8,68.2z
				 M105.5,64.9c-0.3-0.9-0.7-1.9-1-2.8c-0.4,0.9-0.8,1.9-1.1,2.8H105.5z"/>
			<path class="st0" d="M111.6,69c-0.4,0-0.6-0.1-0.8-0.3c-0.1-0.2-0.2-0.5-0.2-1c0-0.1,0-0.8,0.1-1.9c0.1-1.1,0.1-2.2,0.1-3.2
				c0-1.5-0.1-2.5-0.4-3c0.5-0.3,1.1-0.4,1.6-0.4c0.3,0,0.6,0.1,0.7,0.3c0.1,0.2,0.2,0.4,0.2,0.8c0,0.2,0,0.8-0.1,1.8
				c-0.1,1.1-0.1,2-0.1,2.9c0,1.9,0.1,3.1,0.4,3.7C112.6,68.9,112,69,111.6,69z"/>
			<path class="st0" d="M121.4,65.3c0,0.9-0.4,1.3-1.3,1.3c-0.2,0-0.5,0-0.9-0.1c-0.4-0.1-0.7-0.1-0.9-0.1c-0.4,0-0.7,0.1-1,0.2
				c0-0.3-0.1-0.6-0.1-0.7c0-0.9,0.4-1.3,1.3-1.3c0.2,0,0.5,0,0.9,0.1c0.4,0.1,0.6,0.1,0.8,0.1c0.5,0,0.8-0.1,1.1-0.2
				C121.3,64.9,121.4,65.2,121.4,65.3z"/>
			<path class="st0" d="M127,67.3c0.5,0,0.8-0.1,1.1-0.3c0.2-0.2,0.4-0.4,0.4-0.7c0-0.2-0.1-0.5-0.3-0.7c-0.1-0.1-0.4-0.3-0.9-0.7
				c-0.7-0.4-1.1-0.8-1.3-1c-0.3-0.4-0.5-0.8-0.5-1.3c0-0.8,0.3-1.5,0.9-2c0.8-0.9,1.9-1.3,3.2-1.3c0.8,0,1.2,0.3,1.2,0.9
				c0,0.4-0.2,0.8-0.5,1.2c-0.4-0.2-0.8-0.2-1.2-0.2c-0.5,0-0.8,0.1-1.1,0.3c-0.3,0.2-0.4,0.4-0.4,0.7c0,0.3,0.1,0.5,0.4,0.8
				c0.1,0.1,0.5,0.4,1.1,0.8c1,0.6,1.5,1.4,1.5,2.2c0,0.9-0.3,1.6-1,2.2c-0.8,0.7-1.7,1-2.9,1c-0.9,0-1.4-0.4-1.4-1.1
				c0-0.4,0.1-0.7,0.4-1.1C126.1,67.1,126.5,67.3,127,67.3z"/>
			<path class="st0" d="M137.3,69c-0.4,0-0.6-0.1-0.8-0.2c-0.1-0.2-0.2-0.4-0.2-0.8c0-0.2,0-0.5,0-1c0-0.5,0-0.9,0-1.3
				c0-0.7-0.1-1.1-0.2-1.4c-0.2-0.3-0.4-0.4-0.9-0.4c-0.3,0-0.8,0.1-1.3,0.4c0,0.4-0.1,0.9-0.1,1.6c0,1.4,0.1,2.3,0.4,2.8
				c-0.5,0.3-1,0.4-1.6,0.4c-0.4,0-0.6-0.1-0.8-0.3c-0.1-0.2-0.2-0.4-0.2-0.9c0-0.1,0-0.8,0.1-1.9c0.1-1.1,0.1-2.1,0.1-3.1
				c0-1.8-0.1-2.9-0.4-3.4c0.6-0.3,1.1-0.4,1.6-0.4c0.4,0,0.6,0.1,0.8,0.3c0.1,0.2,0.2,0.5,0.2,0.9c0,0.1,0,0.4,0,1
				c0,0.7-0.1,1.3-0.1,1.9c0.7-0.6,1.4-0.9,2.2-0.9c0.8,0,1.3,0.2,1.7,0.6c0.4,0.4,0.6,1.1,0.6,1.9c0,0.2,0,0.5,0,0.9
				c0,0.4,0,0.7,0,1c0,1,0.1,1.6,0.3,2C138.4,68.9,137.9,69,137.3,69z"/>
			<path class="st0" d="M144.8,69c-0.5,0-0.8-0.3-0.9-0.8c-0.6,0.6-1.3,0.8-2,0.8c-0.7,0-1.2-0.2-1.6-0.6c-0.4-0.4-0.6-0.8-0.6-1.4
				c0-0.7,0.3-1.3,0.8-1.7c0.6-0.4,1.3-0.6,2.3-0.6c0.3,0,0.6,0,1,0.1v-0.2c0-0.3-0.1-0.6-0.4-0.8c-0.3-0.2-0.6-0.3-1.1-0.3
				c-0.8,0-1.3,0.2-1.7,0.7c-0.4-0.2-0.5-0.4-0.5-0.8c0-0.4,0.2-0.7,0.7-1c0.5-0.3,1.1-0.4,2-0.4c1,0,1.7,0.2,2.2,0.6
				c0.5,0.4,0.7,1.1,0.7,2l0,0.5c0,0.3,0,0.6,0,0.9c0,1.1,0.1,1.8,0.4,2.2C145.7,68.8,145.2,69,144.8,69z M143.8,65.9
				c-0.3,0-0.5-0.1-0.7-0.1c-0.5,0-0.8,0.1-1.1,0.3c-0.2,0.2-0.4,0.4-0.4,0.7c0,0.3,0.1,0.5,0.3,0.6c0.2,0.2,0.4,0.2,0.7,0.2
				c0.4,0,0.8-0.2,1.2-0.6c0-0.1,0-0.4,0-0.8V65.9z"/>
			<path class="st0" d="M158.7,68.6c-0.5,0.2-1,0.4-1.5,0.4c-0.3,0-0.6-0.1-0.7-0.2c-0.1-0.1-0.2-0.4-0.2-0.7c0-0.3,0-0.7,0-1.2
				c0-0.5,0-1,0-1.2c0-0.6-0.1-1-0.2-1.3c-0.2-0.3-0.5-0.4-0.9-0.4c-0.3,0-0.7,0.1-1.1,0.4c0,1,0,1.7,0,2.1c0,1,0.1,1.7,0.3,2.2
				c-0.5,0.3-1,0.4-1.5,0.4c-0.4,0-0.6-0.1-0.7-0.2c-0.1-0.2-0.2-0.4-0.2-0.8c0-0.2,0-0.5,0-1c0-0.5,0-0.9,0-1.3
				c0-0.6-0.1-1.1-0.2-1.4c-0.2-0.3-0.4-0.4-0.9-0.4c-0.4,0-0.7,0.1-1.2,0.4c0,0.8-0.1,1.4-0.1,2c0,1.1,0.1,1.9,0.3,2.4
				c-0.5,0.3-1,0.4-1.5,0.4c-0.3,0-0.6-0.1-0.7-0.2c-0.1-0.2-0.2-0.4-0.2-0.8c0-0.2,0-0.7,0.1-1.4c0.1-0.7,0.1-1.4,0.1-1.9
				c0-1-0.1-1.7-0.3-2.2c0.4-0.1,0.8-0.2,1.1-0.2c0.7,0,1.2,0.3,1.2,0.9c0.7-0.6,1.4-0.9,2.2-0.9c0.8,0,1.5,0.3,1.9,1
				c0.7-0.7,1.5-1,2.3-1c1.5,0,2.3,0.9,2.3,2.6c0,0.2,0,0.5,0,0.8c0,0.4,0,0.6,0,0.8C158.3,67.5,158.4,68.2,158.7,68.6L158.7,68.6z"
				/>
			<path class="st0" d="M164.6,69c-0.5,0-0.8-0.3-0.9-0.8c-0.6,0.6-1.3,0.8-2,0.8c-0.7,0-1.2-0.2-1.6-0.6c-0.4-0.4-0.6-0.8-0.6-1.4
				c0-0.7,0.3-1.3,0.8-1.7c0.6-0.4,1.3-0.6,2.3-0.6c0.3,0,0.6,0,1,0.1v-0.2c0-0.3-0.1-0.6-0.4-0.8c-0.3-0.2-0.6-0.3-1.1-0.3
				c-0.8,0-1.3,0.2-1.7,0.7c-0.4-0.2-0.5-0.4-0.5-0.8c0-0.4,0.2-0.7,0.7-1c0.5-0.3,1.1-0.4,2-0.4c1,0,1.7,0.2,2.2,0.6
				c0.5,0.4,0.7,1.1,0.7,2l0,0.5c0,0.3,0,0.6,0,0.9c0,1.1,0.1,1.8,0.4,2.2C165.5,68.8,165.1,69,164.6,69z M163.7,65.9
				c-0.3,0-0.5-0.1-0.7-0.1c-0.5,0-0.8,0.1-1.1,0.3c-0.2,0.2-0.4,0.4-0.4,0.7c0,0.3,0.1,0.5,0.3,0.6c0.2,0.2,0.4,0.2,0.7,0.2
				c0.4,0,0.8-0.2,1.2-0.6c0-0.1,0-0.4,0-0.8V65.9z"/>
			<path class="st0" d="M168.3,69c-0.4,0-0.6-0.1-0.8-0.3c-0.1-0.2-0.2-0.5-0.2-1c0-0.1,0-0.8,0.1-1.9c0.1-1.1,0.1-2.2,0.1-3.2
				c0-1.5-0.1-2.5-0.4-3c0.5-0.3,1.1-0.4,1.6-0.4c0.3,0,0.6,0.1,0.7,0.3c0.1,0.2,0.2,0.4,0.2,0.8c0,0.2,0,0.8-0.1,1.8
				c-0.1,1.1-0.1,2-0.1,2.9c0,1.9,0.1,3.1,0.4,3.7C169.3,68.9,168.8,69,168.3,69z"/>
			<path class="st0" d="M175,59.5c0.5,0,1.1,0,1.9-0.1c0.7,0,1.2-0.1,1.5-0.1c1.1,0,2,0.3,2.6,0.8c0.6,0.5,0.9,1.2,0.9,2.1
				c0,1.1-0.3,1.9-1,2.5c-0.7,0.6-1.7,0.9-2.9,0.9c-0.3,0-0.6,0-0.9,0c0,1.3,0.1,2.2,0.4,2.9c-0.6,0.3-1.2,0.4-1.7,0.4
				c-0.4,0-0.7-0.1-0.9-0.3c-0.2-0.2-0.3-0.5-0.3-1c0-0.2,0-0.8,0.1-1.7c0.1-0.9,0.1-1.7,0.1-2.4c0-2.2-0.1-3.5-0.4-4
				C174.5,59.5,174.7,59.5,175,59.5z M177.7,64.1c0.5,0,0.9-0.1,1.2-0.4c0.3-0.3,0.4-0.7,0.4-1.2c0-0.9-0.5-1.4-1.5-1.4
				c-0.2,0-0.4,0-0.7,0.1c-0.1,0.9-0.1,1.8-0.1,2.8C177.3,64.1,177.5,64.1,177.7,64.1z"/>
			<path class="st0" d="M185.1,63.9c0.6-1.1,1.2-1.7,1.9-1.7c0.3,0,0.6,0.1,0.8,0.3c0.2,0.2,0.3,0.5,0.3,0.8c0,0.6-0.4,1.1-1.1,1.4
				c-0.1-0.4-0.3-0.6-0.6-0.6c-0.4,0-0.8,0.4-1.2,1.1c0,0.3,0,0.7,0,1.1c0,1,0.1,1.8,0.4,2.3c-0.6,0.3-1.2,0.4-1.7,0.4
				c-0.4,0-0.6-0.1-0.8-0.2c-0.2-0.2-0.2-0.4-0.2-0.8c0-0.2,0-0.6,0.1-1.4c0-0.8,0.1-1.5,0.1-2.1c0-0.8-0.1-1.5-0.3-2
				c0.5-0.1,0.9-0.2,1.2-0.2c0.4,0,0.7,0.1,0.8,0.3c0.2,0.2,0.3,0.5,0.3,0.8C185.1,63.5,185.1,63.7,185.1,63.9L185.1,63.9z"/>
			<path class="st0" d="M189.9,69c-0.4,0-0.6-0.1-0.7-0.2c-0.1-0.1-0.2-0.4-0.2-0.8c0-0.1,0-0.6,0.1-1.2c0-0.7,0.1-1.3,0.1-1.8
				c0-1.1-0.1-1.8-0.3-2.3c0.5-0.3,1-0.4,1.6-0.4c0.3,0,0.6,0.1,0.7,0.2c0.2,0.2,0.2,0.4,0.2,0.8c0,0.2,0,0.7-0.1,1.4
				c0,0.7-0.1,1.3-0.1,1.8c0,0.9,0.1,1.7,0.3,2.2C190.9,68.9,190.4,69,189.9,69z M191,59.3c0.2,0.2,0.3,0.5,0.3,0.8
				c0,0.3-0.1,0.6-0.4,0.8c-0.2,0.2-0.6,0.3-0.9,0.3c-0.3,0-0.6-0.1-0.8-0.3c-0.2-0.2-0.3-0.4-0.3-0.7c0-0.3,0.1-0.6,0.4-0.9
				c0.2-0.2,0.5-0.4,0.9-0.4C190.6,59,190.8,59.1,191,59.3z"/>
			<path class="st0" d="M198.4,62.2c0.4,0,0.7,0.1,0.9,0.3c0.2,0.2,0.3,0.5,0.3,0.9c0,1.3-0.6,2.7-1.9,4.2c-0.8,1-1.5,1.4-2.3,1.4
				c-0.5,0-0.9-0.2-1.1-0.6c-0.2-0.3-0.4-0.9-0.7-1.9c-0.6-1.7-1.1-2.8-1.6-3.1c0.5-0.8,1-1.3,1.6-1.3c0.4,0,0.7,0.2,0.9,0.6
				c0.1,0.3,0.4,0.9,0.6,1.8c0.3,1,0.4,1.6,0.5,1.7c0.1,0.4,0.3,0.6,0.4,0.6c0.1,0,0.3-0.2,0.5-0.5c0.6-0.8,0.9-1.7,0.9-2.5
				c0-0.5-0.1-0.9-0.4-1.2C197.5,62.4,197.9,62.2,198.4,62.2z"/>
			<path class="st0" d="M205.5,69c-0.5,0-0.8-0.3-0.9-0.8c-0.6,0.6-1.3,0.8-2,0.8c-0.7,0-1.2-0.2-1.6-0.6c-0.4-0.4-0.6-0.8-0.6-1.4
				c0-0.7,0.3-1.3,0.8-1.7c0.6-0.4,1.3-0.6,2.3-0.6c0.3,0,0.6,0,1,0.1v-0.2c0-0.3-0.1-0.6-0.4-0.8c-0.3-0.2-0.6-0.3-1.1-0.3
				c-0.8,0-1.3,0.2-1.7,0.7c-0.4-0.2-0.5-0.4-0.5-0.8c0-0.4,0.2-0.7,0.7-1c0.5-0.3,1.1-0.4,2-0.4c1,0,1.7,0.2,2.2,0.6
				c0.5,0.4,0.7,1.1,0.7,2l0,0.5c0,0.3,0,0.6,0,0.9c0,1.1,0.1,1.8,0.4,2.2C206.4,68.8,205.9,69,205.5,69z M204.5,65.9
				c-0.3,0-0.5-0.1-0.7-0.1c-0.5,0-0.8,0.1-1.1,0.3c-0.2,0.2-0.4,0.4-0.4,0.7c0,0.3,0.1,0.5,0.3,0.6c0.2,0.2,0.4,0.2,0.7,0.2
				c0.4,0,0.8-0.2,1.2-0.6c0-0.1,0-0.4,0-0.8V65.9z"/>
			<path class="st0" d="M212,62.5c0.4,0,0.6,0.2,0.6,0.5c0,0.3-0.1,0.6-0.4,1c-0.2-0.1-0.4-0.1-0.8-0.1l-0.3,0c-0.2,0-0.4,0-0.6,0
				c-0.1,0.9-0.1,1.6-0.1,2.1c0,1,0.3,1.5,0.8,1.5c0.2,0,0.4-0.1,0.6-0.2c0.2,0.3,0.3,0.5,0.3,0.8c0,0.3-0.1,0.6-0.4,0.7
				c-0.3,0.2-0.7,0.3-1.3,0.3c-1.4,0-2-0.7-2-2.2c0-0.3,0-0.7,0.1-1.3c0.1-0.7,0.1-1.2,0.1-1.6c-0.2,0-0.4,0-0.6,0
				c-0.5,0-0.7-0.2-0.7-0.5c0-0.2,0.1-0.5,0.2-0.8c0.1,0,0.3,0,0.5,0c0.1,0,0.3,0,0.6,0l0-0.4c0-0.6-0.1-1.1-0.3-1.5
				c0.5-0.3,1-0.4,1.4-0.4c0.6,0,0.9,0.3,0.9,0.9c0,0.1,0,0.5-0.1,1.2C211.7,62.5,212.1,62.5,212,62.5z"/>
			<path class="st0" d="M219.3,68c0,0.3-0.2,0.6-0.6,0.8c-0.4,0.2-1,0.3-1.7,0.3c-1.2,0-2.2-0.3-2.8-0.9c-0.7-0.6-1-1.4-1-2.5
				c0-1,0.3-1.9,1-2.5c0.7-0.7,1.5-1,2.6-1c0.9,0,1.6,0.2,2.1,0.7c0.5,0.4,0.8,1,0.8,1.7c0,0.6-0.2,1-0.6,1.2
				c-0.4,0.2-1.1,0.3-2,0.3c-0.7,0-1.3,0-1.8-0.1v0c0,0.5,0.2,0.9,0.5,1.2c0.3,0.3,0.8,0.4,1.5,0.4c0.7,0,1.3-0.2,1.7-0.5
				C219.2,67.4,219.3,67.7,219.3,68z M216.8,65.1c0.3,0,0.6,0,0.7-0.1c0.2-0.1,0.2-0.2,0.2-0.4c0-0.3-0.1-0.6-0.3-0.7
				c-0.2-0.2-0.5-0.3-0.8-0.3c-0.8,0-1.2,0.5-1.4,1.4C216,65,216.5,65.1,216.8,65.1z"/>
			<path class="st0" d="M231.6,59.4c0.5,0,0.9,0.2,1.1,0.7c0.2,0.5,0.3,1.2,0.3,2.4c0,2.3-0.4,4-1.2,5.1c-0.8,1.1-2.1,1.6-3.8,1.6
				c-2.7,0-4.1-1.3-4.1-3.9c0-0.4,0-1,0-1.6c0-0.7,0-1.1,0-1.4c0-1.1-0.1-2-0.4-2.5c0.6-0.3,1.2-0.4,1.7-0.4c0.5,0,0.8,0.1,1,0.3
				c0.2,0.2,0.3,0.5,0.3,0.9c0,0.2,0,0.7-0.1,1.5c0,0.8-0.1,1.6-0.1,2.3c0,1,0.1,1.7,0.4,2.1c0.3,0.4,0.8,0.7,1.5,0.7
				c0.8,0,1.4-0.3,1.7-1c0.3-0.6,0.5-1.6,0.5-2.9c0-1.7-0.2-2.8-0.7-3.5C230.6,59.5,231.1,59.4,231.6,59.4z"/>
			<path class="st0" d="M241.7,68.6c-0.5,0.2-1,0.4-1.6,0.4c-0.4,0-0.6-0.1-0.8-0.2c-0.2-0.1-0.2-0.4-0.2-0.7c0-0.2,0-0.6,0-1.1
				c0-0.5,0-0.9,0-1.2c0-0.6-0.1-1.1-0.2-1.4c-0.2-0.3-0.5-0.4-0.9-0.4c-0.4,0-0.8,0.2-1.3,0.5c0,1.1-0.1,1.8-0.1,2
				c0,1.1,0.1,1.9,0.3,2.4c-0.5,0.2-1,0.4-1.6,0.4c-0.4,0-0.6-0.1-0.8-0.3c-0.1-0.2-0.2-0.5-0.2-0.9c0-0.2,0-0.6,0.1-1.3
				c0.1-0.7,0.1-1.3,0.1-1.9c0-1.1-0.1-1.8-0.3-2.3c0.4-0.1,0.8-0.2,1.1-0.2c0.8,0,1.2,0.3,1.3,0.9c0.7-0.6,1.5-0.9,2.2-0.9
				c0.8,0,1.5,0.2,1.8,0.7c0.4,0.5,0.6,1.2,0.6,2.2c0,0.2,0,0.4,0,0.7c0,0.3,0,0.5,0,0.6C241.4,67.5,241.5,68.2,241.7,68.6
				L241.7,68.6z"/>
			<path class="st0" d="M244,69c-0.4,0-0.6-0.1-0.7-0.2c-0.1-0.1-0.2-0.4-0.2-0.8c0-0.1,0-0.6,0.1-1.2c0-0.7,0.1-1.3,0.1-1.8
				c0-1.1-0.1-1.8-0.3-2.3c0.5-0.3,1-0.4,1.6-0.4c0.3,0,0.6,0.1,0.7,0.2c0.2,0.2,0.2,0.4,0.2,0.8c0,0.2,0,0.7-0.1,1.4
				c0,0.7-0.1,1.3-0.1,1.8c0,0.9,0.1,1.7,0.3,2.2C245.1,68.9,244.6,69,244,69z M245.2,59.3c0.2,0.2,0.3,0.5,0.3,0.8
				c0,0.3-0.1,0.6-0.4,0.8c-0.2,0.2-0.6,0.3-0.9,0.3c-0.3,0-0.6-0.1-0.8-0.3c-0.2-0.2-0.3-0.4-0.3-0.7c0-0.3,0.1-0.6,0.4-0.9
				c0.2-0.2,0.5-0.4,0.9-0.4C244.7,59,245,59.1,245.2,59.3z"/>
			<path class="st0" d="M252.6,62.2c0.4,0,0.7,0.1,0.9,0.3c0.2,0.2,0.3,0.5,0.3,0.9c0,1.3-0.6,2.7-1.9,4.2c-0.8,1-1.5,1.4-2.3,1.4
				c-0.5,0-0.9-0.2-1.1-0.6c-0.2-0.3-0.4-0.9-0.7-1.9c-0.6-1.7-1.1-2.8-1.6-3.1c0.5-0.8,1-1.3,1.6-1.3c0.4,0,0.7,0.2,0.9,0.6
				c0.1,0.3,0.4,0.9,0.6,1.8c0.3,1,0.4,1.6,0.5,1.7c0.1,0.4,0.3,0.6,0.4,0.6c0.1,0,0.3-0.2,0.5-0.5c0.6-0.8,0.9-1.7,0.9-2.5
				c0-0.5-0.1-0.9-0.4-1.2C251.6,62.4,252.1,62.2,252.6,62.2z"/>
			<path class="st0" d="M260.7,68c0,0.3-0.2,0.6-0.6,0.8c-0.4,0.2-1,0.3-1.7,0.3c-1.2,0-2.2-0.3-2.8-0.9c-0.7-0.6-1-1.4-1-2.5
				c0-1,0.3-1.9,1-2.5c0.7-0.7,1.5-1,2.6-1c0.9,0,1.6,0.2,2.1,0.7c0.5,0.4,0.8,1,0.8,1.7c0,0.6-0.2,1-0.6,1.2
				c-0.4,0.2-1.1,0.3-2.1,0.3c-0.7,0-1.3,0-1.8-0.1v0c0,0.5,0.2,0.9,0.5,1.2c0.3,0.3,0.8,0.4,1.5,0.4c0.7,0,1.3-0.2,1.7-0.5
				C260.6,67.4,260.7,67.7,260.7,68z M258.2,65.1c0.3,0,0.6,0,0.7-0.1c0.2-0.1,0.2-0.2,0.2-0.4c0-0.3-0.1-0.6-0.3-0.7
				c-0.2-0.2-0.5-0.3-0.8-0.3c-0.8,0-1.2,0.5-1.4,1.4C257.4,65,257.9,65.1,258.2,65.1z"/>
			<path class="st0" d="M264.5,63.9c0.6-1.1,1.2-1.7,1.9-1.7c0.3,0,0.6,0.1,0.8,0.3c0.2,0.2,0.3,0.5,0.3,0.8c0,0.6-0.4,1.1-1.1,1.4
				c-0.1-0.4-0.3-0.6-0.6-0.6c-0.4,0-0.8,0.4-1.2,1.1c0,0.3,0,0.7,0,1.1c0,1,0.1,1.8,0.4,2.3c-0.6,0.3-1.2,0.4-1.7,0.4
				c-0.4,0-0.6-0.1-0.8-0.2c-0.2-0.2-0.2-0.4-0.2-0.8c0-0.2,0-0.6,0.1-1.4c0-0.8,0.1-1.5,0.1-2.1c0-0.8-0.1-1.5-0.3-2
				c0.5-0.1,0.9-0.2,1.2-0.2c0.4,0,0.7,0.1,0.8,0.3c0.2,0.2,0.3,0.5,0.3,0.8C264.5,63.5,264.5,63.7,264.5,63.9L264.5,63.9z"/>
			<path class="st0" d="M269.4,67.7c0.3,0,0.5-0.1,0.6-0.2c0.1-0.1,0.2-0.2,0.2-0.4c0-0.2-0.1-0.3-0.3-0.5c0,0-0.3-0.2-0.8-0.5
				c-0.4-0.3-0.7-0.5-0.9-0.7c-0.2-0.3-0.3-0.6-0.3-0.9c0-0.6,0.3-1.2,0.9-1.7c0.6-0.5,1.3-0.7,2.2-0.7c0.7,0,1,0.3,1,0.8
				c0,0.3-0.1,0.6-0.4,0.9c-0.3-0.1-0.6-0.2-0.8-0.2c-0.3,0-0.5,0.1-0.7,0.2c-0.2,0.1-0.3,0.3-0.3,0.4c0,0.2,0.2,0.5,0.6,0.8
				c0.6,0.5,1,0.8,1.1,0.9c0.3,0.3,0.4,0.6,0.4,1c0,0.6-0.3,1.2-0.8,1.6c-0.6,0.5-1.3,0.7-2.2,0.7c-0.8,0-1.2-0.3-1.2-0.8
				c0-0.3,0.1-0.6,0.4-0.9C268.7,67.6,269,67.7,269.4,67.7z"/>
			<path class="st0" d="M274.4,69c-0.4,0-0.6-0.1-0.7-0.2c-0.1-0.1-0.2-0.4-0.2-0.8c0-0.1,0-0.6,0.1-1.2c0-0.7,0.1-1.3,0.1-1.8
				c0-1.1-0.1-1.8-0.3-2.3c0.5-0.3,1-0.4,1.6-0.4c0.3,0,0.6,0.1,0.7,0.2c0.2,0.2,0.2,0.4,0.2,0.8c0,0.2,0,0.7-0.1,1.4
				c0,0.7-0.1,1.3-0.1,1.8c0,0.9,0.1,1.7,0.3,2.2C275.4,68.9,274.9,69,274.4,69z M275.5,59.3c0.2,0.2,0.3,0.5,0.3,0.8
				c0,0.3-0.1,0.6-0.4,0.8c-0.2,0.2-0.6,0.3-0.9,0.3c-0.3,0-0.6-0.1-0.8-0.3c-0.2-0.2-0.3-0.4-0.3-0.7c0-0.3,0.1-0.6,0.4-0.9
				c0.2-0.2,0.5-0.4,0.9-0.4C275.1,59,275.3,59.1,275.5,59.3z"/>
			<path class="st0" d="M281.2,62.5c0.4,0,0.6,0.2,0.6,0.5c0,0.3-0.1,0.6-0.4,1c-0.2-0.1-0.4-0.1-0.8-0.1l-0.3,0c-0.2,0-0.4,0-0.6,0
				c-0.1,0.9-0.1,1.6-0.1,2.1c0,1,0.3,1.5,0.8,1.5c0.2,0,0.4-0.1,0.6-0.2c0.2,0.3,0.3,0.5,0.3,0.8c0,0.3-0.1,0.6-0.4,0.7
				c-0.3,0.2-0.7,0.3-1.3,0.3c-1.4,0-2-0.7-2-2.2c0-0.3,0-0.7,0.1-1.3c0.1-0.7,0.1-1.2,0.1-1.6c-0.2,0-0.4,0-0.6,0
				c-0.5,0-0.7-0.2-0.7-0.5c0-0.2,0.1-0.5,0.2-0.8c0.1,0,0.3,0,0.5,0c0.1,0,0.3,0,0.6,0l0-0.4c0-0.6-0.1-1.1-0.3-1.5
				c0.5-0.3,1-0.4,1.4-0.4c0.6,0,0.9,0.3,0.9,0.9c0,0.1,0,0.5-0.1,1.2C280.9,62.5,281.3,62.5,281.2,62.5z"/>
			<path class="st0" d="M288.7,62.3c0.6,0,0.8,0.2,0.8,0.6c0,0.1-0.8,2.1-2.4,6c-0.6,1.3-0.9,2.1-1,2.2c-0.3,0.5-0.7,0.7-1.1,0.7
				c-0.5,0-1-0.3-1.4-1c0.4-0.3,0.8-0.8,1-1.3l0.3-0.6c-0.7-1.8-1.3-3.1-1.7-3.8c-0.5-0.9-0.9-1.3-1.2-1.3c0.3-1.1,0.9-1.6,1.6-1.6
				c0.4,0,0.6,0.2,0.9,0.6c0.1,0.1,0.2,0.5,0.5,1.4c0.4,1,0.7,1.9,1.1,2.8c0.8-1.9,1.2-3.1,1.2-3.7c0-0.3-0.1-0.5-0.2-0.6
				C287.6,62.4,288.2,62.3,288.7,62.3z"/>
		</g>
	</g>
	<path class="st3" d="M15.9,61.9c-0.6-0.3-1.3-0.3-2-0.1c0.5,1.5,2.1,2.1,3.3,1.5C17,62.7,16.5,62.2,15.9,61.9z"/>
	<path class="st3" d="M18.8,60.1c-0.6,0.2-1.2,0.7-1.5,1.3c-0.3,0.6-0.3,1.3,0,1.9C18.6,62.7,19.2,61.3,18.8,60.1z"/>
	<path class="st3" d="M16.4,60.8c-0.5-1.3-1.8-2.1-3.2-1.8C13.5,60.5,15,61.3,16.4,60.8z"/>
	<path class="st3" d="M18.1,57.8c-1.3,0.3-2.2,1.7-1.7,3.1C17.7,60.4,18.4,59,18.1,57.8z"/>
	<path class="st3" d="M15.6,58.3c-0.3-1.4-1.7-2.3-3-2.1C12.8,57.8,14.2,58.7,15.6,58.3z"/>
	<path class="st3" d="M17.6,55.4c-1.4,0.2-2.3,1.5-2,2.9C17,58,17.8,56.6,17.6,55.4z"/>
	<path class="st3" d="M15.1,55.7c-0.3-1.4-1.5-2.4-2.9-2.3C12.3,55,13.7,56,15.1,55.7z"/>
	<path class="st3" d="M17.3,53c-1.4,0.1-2.5,1.4-2.2,2.8C16.4,55.5,17.4,54.3,17.3,53z"/>
	<path class="st3" d="M14.7,53.1c-0.1-1.4-1.3-2.5-2.7-2.5C12.1,52.2,13.3,53.3,14.7,53.1z"/>
	<path class="st3" d="M17.1,50.5c-1.4,0-2.5,1.2-2.4,2.6C16.1,53,17.2,51.8,17.1,50.5z"/>
	<path class="st3" d="M14.6,50.5c0-1.4-1.1-2.6-2.5-2.7C12,49.3,13.2,50.5,14.6,50.5z"/>
	<path class="st3" d="M17.2,48.1c-1.4-0.1-2.6,1-2.6,2.4C16,50.5,17.1,49.4,17.2,48.1z"/>
	<path class="st3" d="M14.6,47.9c0.1-1.4-0.9-2.7-2.3-2.9C12.2,46.5,13.2,47.8,14.6,47.9z"/>
	<path class="st3" d="M17.4,45.7c-1.4-0.2-2.7,0.8-2.8,2.2C16,47.9,17.3,47,17.4,45.7z"/>
	<path class="st3" d="M14.9,45.2c0.2-1.4-0.7-2.7-2-3.1C12.5,43.7,13.5,45.1,14.9,45.2z"/>
	<path class="st3" d="M17.9,43.3c-1.4-0.3-2.8,0.5-3,2C16.3,45.4,17.6,44.5,17.9,43.3z"/>
	<path class="st3" d="M15.4,42.7c0.3-1.4-0.5-2.8-1.8-3.2C13.1,40.9,14,42.4,15.4,42.7z"/>
	<path class="st3" d="M18.5,40.9c-1.3-0.4-2.8,0.3-3.1,1.7C16.7,42.9,18.1,42.2,18.5,40.9z"/>
	<path class="st3" d="M16,40.1c0.4-1.3-0.2-2.8-1.5-3.3C13.9,38.2,14.7,39.7,16,40.1z"/>
	<path class="st3" d="M19.3,38.6c-1.3-0.5-2.8,0.1-3.2,1.5C17.4,40.5,18.8,39.8,19.3,38.6z"/>
	<path class="st3" d="M15.7,34.2c-0.3,0.6-0.4,1.4-0.1,2.1c0.2,0.6,0.7,1.2,1.4,1.4C17.4,36.3,16.9,34.8,15.7,34.2z"/>
	<path class="st3" d="M16.9,37.6c0.6,0.2,1.3,0.3,1.9,0c0.6-0.2,1.1-0.6,1.4-1.2C19,35.8,17.5,36.3,16.9,37.6z"/>
	<path class="st3" d="M19.4,33c-0.7,0.2-1.3,0.6-1.7,1.2c-0.3,0.6-0.4,1.3-0.2,2C18.8,35.7,19.7,34.4,19.4,33z"/>
	<path class="st3" d="M17.9,63.5c-0.5,0-1,0.4-1,0.9c0,0.5,0.4,1,0.9,1c0.5,0,1-0.4,1-0.9C18.9,64,18.5,63.6,17.9,63.5
		C17.9,63.5,17.9,63.5,17.9,63.5z"/>
	<path class="st3" d="M26.1,27.6l-0.9,0.9c-0.2,0.2-0.4,0.2-0.7,0c-0.2-0.2-0.5-0.5-0.9-0.9l-0.7-0.7c-0.1-0.1-0.1-0.2,0-0.4
		c0,0,0,0,0,0c0.1-0.1,0.2-0.2,0.4-0.2c0,0.1,0.1,0.2,0.2,0.4c0,0,0.2,0.2,0.6,0.6l0.6,0.6c0.1,0.1,0.2,0.2,0.3,0.1l0.5-0.5
		c0.1-0.1,0.1-0.2,0-0.3c0,0-0.1-0.2-0.3-0.3c-0.2-0.2-0.3-0.3-0.3-0.3c-0.1-0.1-0.1-0.3,0-0.4c0,0,0,0,0,0c0.1-0.1,0.2-0.1,0.4-0.2
		c0,0.1,0.1,0.2,0.2,0.4l0.3,0.3c0.2,0.2,0.3,0.3,0.3,0.3C26.3,27.2,26.3,27.4,26.1,27.6z"/>
	<path class="st3" d="M26,28.3c-0.1-0.1-0.2-0.1-0.3,0c0,0,0,0,0,0c-0.1,0-0.1,0.1-0.1,0.2c0,0.1,0,0.1,0.1,0.2
		c0.1,0.1,0.2,0.1,0.3,0c0,0,0,0,0,0C26,28.6,26.1,28.5,26,28.3C26,28.3,26,28.3,26,28.3z M26.4,27.9c0,0-0.1-0.1-0.2-0.1
		c-0.1,0-0.1,0-0.2,0.1c-0.1,0-0.1,0.1-0.1,0.2c0,0.1,0,0.1,0.1,0.2c0.1,0.1,0.2,0.1,0.3,0c0,0,0,0,0,0c0.1,0,0.1-0.1,0.1-0.2
		C26.5,28,26.5,27.9,26.4,27.9L26.4,27.9z"/>
	<path class="st3" d="M23,72.1l-0.6,0.3l-0.2-0.2l2-0.9l0.2,0.2l-0.9,2l-0.2-0.2l0.3-0.6L23,72.1z M23.7,72.4l0.3-0.6
		c0.1-0.1,0.1-0.2,0.2-0.3h0c-0.1,0.1-0.2,0.1-0.3,0.2L23.2,72L23.7,72.4z"/>
	<path class="st3" d="M23.7,73.7l1-1.1l0.2,0.2l-1,1.1L23.7,73.7z M25.2,72.5c-0.1,0.1-0.2,0.1-0.3,0s-0.1-0.2,0-0.3
		c0.1-0.1,0.2-0.1,0.2,0c0,0,0,0,0,0C25.3,72.3,25.3,72.4,25.2,72.5C25.2,72.5,25.2,72.5,25.2,72.5z"/>
	<path class="st3" d="M25.3,75.3l-0.1,0.1L24,74.4l0.1-0.1L25.3,75.3z"/>
	<path class="st0" d="M232.4,38.2l0.1,6c0,0.4-0.1,0.8-0.4,1.1c-0.3,0.3-0.6,0.4-1.1,0.4c-0.8,0-1.5-0.2-2-0.7
		c0.2-0.4,0.4-1.2,0.4-2.3l-0.1-6.1c-0.1-3.6-0.1-5.6-0.1-6c0-0.4,0.1-0.8,0.4-1.1c0.3-0.3,0.6-0.4,1.1-0.4c0.8,0,1.5,0.2,2,0.7
		c-0.2,0.4-0.4,1.2-0.4,2.3C232.4,32.6,232.4,34.6,232.4,38.2z"/>
	<path class="st0" d="M247.9,31.4c-0.3-0.2-0.6-0.4-1-0.4c-0.4,0-0.8,0.1-1.1,0.4c-0.3,0.3-0.5,0.7-0.5,1.1c0,0.3,0.1,0.7,0.4,0.9v0
		c0.3,0.2,0.6,0.4,0.9,0.3c0.4,0,0.8-0.2,1.1-0.4c0.3-0.3,0.5-0.7,0.4-1.1C248.3,32,248.2,31.6,247.9,31.4z M244.3,31.4
		c-0.3-0.2-0.6-0.4-1-0.4c-0.4,0-0.8,0.1-1.1,0.4c-0.3,0.3-0.5,0.7-0.4,1.1c0,0.3,0.1,0.7,0.4,0.9v0c0.3,0.2,0.6,0.4,0.9,0.3
		c0.4,0,0.8-0.2,1.1-0.4c0.3-0.3,0.5-0.7,0.4-1.1C244.7,32,244.5,31.6,244.3,31.4z"/>
	<path class="st0" d="M275.1,36.9c-1.3-1-3-1.5-5.2-1.5c-0.8,0-1.5,0.2-2,0.6c0.2,0.4,0.4,1.1,0.4,2.2l0,3.4c0,0.4-0.1,0.8-0.4,1.1
		c-0.2,0.2-0.4,0.3-0.6,0.3h-1.4v0h-3.3c0.7-0.9,1-1.9,1-3c0-1.4-0.5-2.6-1.6-3.4c-1.1-0.9-2.5-1.3-4.2-1.3c-1.7,0-2.9,0.4-3.7,1.3
		c-0.4,0.3-0.6,0.9-0.6,1.8c0.3,0.3,0.6,1,1,2l0.9,2.7h-6.4c-0.2,0-0.5-0.1-0.6-0.4c-0.2-0.3-0.3-0.7-0.3-1.1c0,0,0-0.1,0-0.1l0-3.2
		c0-1.1,0.1-1.8,0.4-2.2c-0.6-0.4-1.2-0.6-2-0.6c-2.2-0.1-4,0.4-5.3,1.5c-1.2,1-1.9,2.4-2,4.3c0,1.3,0.3,2.3,1.2,3.2
		c0.9,0.9,2.1,1.4,3.6,1.4h1.1c1,0,1.8-0.3,2.3-0.8c0.3,0.5,0.8,0.8,1.6,0.8h1.4v0h15.1v0h1.9c0.7,0,1.2-0.2,1.5-0.7
		c0.4,0.4,1,0.7,1.8,0.7h1.7c1.5,0,2.7-0.5,3.6-1.4c0.8-0.8,1.2-1.9,1.2-3.1C277,39.4,276.4,37.9,275.1,36.9z M244.8,42
		c0,0.7-0.3,1.1-1,1.1c-1.4,0-2.1-0.7-2.1-2c0-0.7,0.3-1.4,0.9-2.1c0.6-0.7,1.3-1.2,2-1.4L244.8,42L244.8,42z M259.5,42.1
		c-0.4,0.5-0.9,0.8-1.5,0.9c-0.7-2.5-1.3-4.1-1.8-4.9v0c0.4-0.1,0.9-0.2,1.3-0.2c0.7,0,1.3,0.2,1.8,0.7c0.5,0.5,0.7,1.1,0.7,1.8
		C260.1,41.1,259.9,41.7,259.5,42.1z M272.3,43.1c-0.7,0-1-0.4-1-1.1l0.1-4.4c0.7,0.2,1.4,0.6,2,1.4c0.6,0.7,0.9,1.4,0.9,2.1
		C274.3,42.5,273.6,43.1,272.3,43.1z"/>
	<path class="st0" d="M291.2,47.3c-0.3-0.2-0.6-0.4-1-0.4c-0.4,0-0.8,0.1-1.1,0.4c-0.3,0.3-0.5,0.7-0.4,1.1c0,0.3,0.1,0.7,0.4,0.9
		c0.2,0.2,0.6,0.4,0.9,0.3c0.4,0,0.8-0.1,1.1-0.4c0.3-0.3,0.5-0.7,0.4-1.1C291.6,47.9,291.5,47.5,291.2,47.3z"/>
	<path class="st0" d="M298.7,44.4c-0.3,0.5-0.7,0.9-1.1,1c-0.4,0.1-1.1,0.2-2.1,0.2h-14.2c-1.6,0-2.4-0.9-2.4-2.6c0-2.7,0-5,0-6.9
		l-0.1-5.6c0-0.4,0.1-0.8,0.4-1.1c0.3-0.3,0.6-0.4,1.1-0.4c0.7,0,1.5,0.2,2,0.7c-0.2,0.4-0.4,1.2-0.4,2.3l0,9.5
		c0,0.5,0.1,0.9,0.2,1.1c0.1,0.2,0.4,0.3,0.8,0.3h10.8c-0.8-0.3-2.1-1-3.7-2c-1.7-1.1-2.7-2-3-2.5c-0.2-0.4-0.2-0.9-0.1-1.3
		c0.2-0.5,0.5-0.9,0.9-1.3c0.4-0.3,1-0.5,1.5-0.6c0,0.5,0.4,1.1,1.2,1.9c0.8,0.8,1.7,1.6,2.9,2.3c2.7,1.8,4.6,2.5,5.6,2.1
		C299.1,43.1,299,43.9,298.7,44.4z"/>
</g>
</svg>
